<svg version="1.1" xmlns="http://www.w3.org/2000/svg" xmlns:xlink="http://www.w3.org/1999/xlink" shape-rendering="crispEdges" width="200" height="200" viewBox="0 0 200 200"><g><path fill="rgba(255,255,255,0)" d="M0,0h200v25h-200ZM0,25h48v1h-48ZM176,25h24v117h-24ZM0,26h32v104h-32ZM0,130h29v2h-29ZM31,130h1v1h-1ZM0,132h28v2h-28ZM0,134h27v2h-27ZM0,136h26v2h-26ZM0,138h25v2h-25ZM0,140h24v2h-24ZM0,142h23v2h-23ZM177,142h23v2h-23ZM0,144h22v2h-22ZM178,144h22v2h-22ZM0,146h21v3h-21ZM179,146h21v2h-21ZM180,148h20v3h-20ZM0,149h20v3h-20ZM176,151h24v6h-24ZM0,152h21v2h-21ZM0,154h22v3h-22ZM0,157h23v2h-23ZM179,157h21v2h-21ZM0,159h24v1h-24ZM178,159h22v3h-22ZM0,160h25v2h-25ZM0,162h26v2h-26ZM177,162h23v2h-23ZM0,164h27v2h-27ZM176,164h24v11h-24ZM0,166h28v2h-28ZM0,168h29v2h-29ZM0,170h30v2h-30ZM0,172h31v2h-31ZM0,174h32v1h-32ZM0,175h200v25h-200Z"/><path fill="rgba(60,60,60,0)" d="M48,25h39v1h-39ZM118,25h58v2h-58ZM48,26h34v1h-34ZM84,26h3v1h-3ZM48,27h33v2h-33ZM84,27h4v2h-4ZM119,27h57v2h-57ZM48,29h32v2h-32ZM85,29h4v1h-4ZM120,29h56v2h-56ZM86,30h3v1h-3ZM48,31h31v2h-31ZM86,31h4v1h-4ZM121,31h55v2h-55ZM87,32h4v2h-4ZM48,33h30v2h-30ZM122,33h54v1h-54ZM87,34h5v1h-5ZM123,34h53v2h-53ZM48,35h29v2h-29ZM88,35h4v1h-4ZM88,36h5v1h-5ZM124,36h52v2h-52ZM48,37h28v2h-28ZM89,37h4v1h-4ZM90,38h4v2h-4ZM125,38h51v2h-51ZM48,39h27v2h-27ZM90,40h5v1h-5ZM126,40h50v2h-50ZM48,41h26v2h-26ZM91,41h4v1h-4ZM91,42h5v1h-5ZM127,42h49v2h-49ZM48,43h25v2h-25ZM92,43h4v1h-4ZM92,44h5v1h-5ZM128,44h48v2h-48ZM48,45h24v2h-24ZM93,45h4v1h-4ZM93,46h83v1h-83ZM48,47h23v4h-23ZM94,47h82v3h-82ZM94,50h6v2h-6ZM131,50h45v2h-45ZM48,51h24v2h-24ZM93,52h7v1h-7ZM132,52h44v2h-44ZM48,53h25v2h-25ZM93,53h8v1h-8ZM92,54h9v1h-9ZM133,54h43v2h-43ZM48,55h19v1h-19ZM69,55h5v2h-5ZM91,55h5v1h-5ZM97,55h5v1h-5ZM48,56h18v2h-18ZM91,56h4v1h-4ZM98,56h4v1h-4ZM134,56h42v2h-42ZM70,57h5v2h-5ZM90,57h5v1h-5ZM98,57h5v1h-5ZM48,58h17v2h-17ZM90,58h4v1h-4ZM99,58h4v1h-4ZM135,58h41v2h-41ZM71,59h5v1h-5ZM89,59h5v1h-5ZM99,59h5v1h-5ZM48,60h16v1h-16ZM71,60h6v1h-6ZM89,60h4v1h-4ZM100,60h4v1h-4ZM136,60h40v2h-40ZM48,61h15v2h-15ZM72,61h5v1h-5ZM88,61h5v1h-5ZM100,61h5v1h-5ZM72,62h6v1h-6ZM88,62h4v1h-4ZM101,62h4v1h-4ZM137,62h39v2h-39ZM48,63h14v2h-14ZM73,63h5v1h-5ZM87,63h5v1h-5ZM101,63h5v1h-5ZM74,64h5v2h-5ZM87,64h4v1h-4ZM102,64h4v2h-4ZM138,64h38v2h-38ZM48,65h13v2h-13ZM86,65h5v1h-5ZM75,66h5v2h-5ZM85,66h5v2h-5ZM103,66h4v2h-4ZM139,66h37v2h-37ZM48,67h12v2h-12ZM76,68h5v2h-5ZM84,68h5v1h-5ZM103,68h5v1h-5ZM140,68h36v2h-36ZM48,69h11v1h-11ZM84,69h4v1h-4ZM104,69h4v1h-4ZM48,70h10v3h-10ZM77,70h11v1h-11ZM104,70h5v1h-5ZM141,70h35v3h-35ZM77,71h10v1h-10ZM105,71h4v1h-4ZM78,72h9v1h-9ZM105,72h5v1h-5ZM48,73h9v3h-9ZM79,73h7v2h-7ZM106,73h70v2h-70ZM79,75h6v3h-6ZM107,75h69v3h-69ZM48,76h10v2h-10ZM48,78h11v2h-11ZM78,78h8v2h-8ZM107,78h6v2h-6ZM145,78h31v2h-31ZM48,80h12v1h-12ZM77,80h10v2h-10ZM106,80h8v2h-8ZM146,80h30v2h-30ZM48,81h6v2h-6ZM56,81h5v1h-5ZM57,82h5v1h-5ZM76,82h12v2h-12ZM105,82h10v1h-10ZM147,82h29v2h-29ZM48,83h5v2h-5ZM58,83h4v1h-4ZM104,83h4v2h-4ZM110,83h5v1h-5ZM58,84h5v1h-5ZM75,84h6v2h-6ZM83,84h6v1h-6ZM111,84h5v2h-5ZM148,84h28v2h-28ZM48,85h4v2h-4ZM59,85h5v1h-5ZM84,85h5v1h-5ZM103,85h4v1h-4ZM60,86h4v1h-4ZM74,86h6v2h-6ZM84,86h6v1h-6ZM102,86h4v2h-4ZM112,86h5v2h-5ZM149,86h27v2h-27ZM48,87h3v1h-3ZM60,87h5v1h-5ZM85,87h5v1h-5ZM48,88h2v3h-2ZM61,88h5v1h-5ZM74,88h5v1h-5ZM85,88h6v1h-6ZM101,88h4v1h-4ZM113,88h4v1h-4ZM150,88h26v2h-26ZM62,89h4v1h-4ZM73,89h6v1h-6ZM86,89h5v1h-5ZM100,89h5v1h-5ZM113,89h5v1h-5ZM62,90h5v1h-5ZM72,90h6v2h-6ZM86,90h6v1h-6ZM100,90h4v1h-4ZM114,90h4v1h-4ZM151,90h25v2h-25ZM48,91h1v1h-1ZM63,91h4v1h-4ZM87,91h5v1h-5ZM99,91h4v1h-4ZM114,91h5v1h-5ZM64,92h4v1h-4ZM72,92h5v1h-5ZM87,92h6v1h-6ZM98,92h4v2h-4ZM115,92h4v1h-4ZM152,92h24v2h-24ZM64,93h5v1h-5ZM71,93h6v1h-6ZM88,93h6v2h-6ZM115,93h5v1h-5ZM65,94h12v1h-12ZM97,94h4v1h-4ZM116,94h4v1h-4ZM153,94h23v2h-23ZM66,95h10v2h-10ZM89,95h6v1h-6ZM96,95h5v1h-5ZM116,95h5v1h-5ZM89,96h11v1h-11ZM117,96h4v1h-4ZM154,96h22v3h-22ZM67,97h32v1h-32ZM117,97h5v1h-5ZM68,98h31v1h-31ZM118,98h4v1h-4ZM68,99h30v1h-30ZM118,99h58v1h-58ZM68,100h29v3h-29ZM119,100h57v3h-57ZM67,103h6v1h-6ZM95,103h3v1h-3ZM119,103h6v1h-6ZM157,103h19v2h-19ZM67,104h5v1h-5ZM95,104h4v2h-4ZM118,104h7v1h-7ZM66,105h5v2h-5ZM118,105h8v1h-8ZM158,105h18v2h-18ZM94,106h6v2h-6ZM117,106h9v1h-9ZM48,107h1v1h-1ZM65,107h6v1h-6ZM117,107h10v1h-10ZM159,107h17v2h-17ZM48,108h2v2h-2ZM65,108h5v1h-5ZM93,108h8v2h-8ZM116,108h4v1h-4ZM122,108h5v1h-5ZM64,109h6v1h-6ZM115,109h5v1h-5ZM123,109h5v2h-5ZM160,109h16v2h-16ZM48,110h3v2h-3ZM64,110h5v1h-5ZM93,110h9v1h-9ZM114,110h5v1h-5ZM63,111h6v1h-6ZM92,111h11v2h-11ZM114,111h4v1h-4ZM124,111h4v1h-4ZM161,111h15v2h-15ZM48,112h4v1h-4ZM63,112h5v1h-5ZM113,112h4v1h-4ZM124,112h5v1h-5ZM48,113h5v1h-5ZM62,113h6v2h-6ZM91,113h13v2h-13ZM112,113h5v1h-5ZM125,113h5v2h-5ZM162,113h14v2h-14ZM49,114h4v1h-4ZM111,114h5v1h-5ZM50,115h4v1h-4ZM61,115h6v2h-6ZM90,115h15v1h-15ZM111,115h4v1h-4ZM126,115h5v2h-5ZM163,115h13v2h-13ZM50,116h5v1h-5ZM90,116h16v2h-16ZM110,116h5v1h-5ZM51,117h4v1h-4ZM60,117h6v2h-6ZM109,117h5v1h-5ZM127,117h4v1h-4ZM164,117h12v2h-12ZM51,118h5v1h-5ZM89,118h18v1h-18ZM109,118h4v1h-4ZM127,118h5v1h-5ZM52,119h5v2h-5ZM59,119h6v2h-6ZM89,119h23v1h-23ZM128,119h5v2h-5ZM165,119h11v2h-11ZM88,120h24v1h-24ZM53,121h11v1h-11ZM88,121h23v1h-23ZM129,121h5v2h-5ZM166,121h10v2h-10ZM54,122h10v1h-10ZM87,122h23v1h-23ZM54,123h56v1h-56ZM130,123h5v1h-5ZM167,123h9v2h-9ZM55,124h55v2h-55ZM131,124h4v1h-4ZM131,125h5v3h-5ZM168,125h8v3h-8ZM55,126h56v2h-56ZM55,128h121v1h-121ZM55,129h6v1h-6ZM84,129h92v2h-92ZM54,130h6v2h-6ZM83,131h93v1h-93ZM53,132h6v2h-6ZM83,132h6v1h-6ZM100,132h5v2h-5ZM136,132h4v2h-4ZM172,132h4v1h-4ZM82,133h7v1h-7ZM173,133h3v2h-3ZM52,134h6v2h-6ZM82,134h6v1h-6ZM101,134h4v2h-4ZM137,134h4v3h-4ZM81,135h6v2h-6ZM174,135h2v2h-2ZM51,136h6v2h-6ZM102,136h4v2h-4ZM80,137h6v2h-6ZM138,137h4v2h-4ZM175,137h1v3h-1ZM50,138h6v1h-6ZM103,138h4v2h-4ZM50,139h5v1h-5ZM79,139h7v1h-7ZM139,139h4v3h-4ZM49,140h6v1h-6ZM79,140h6v1h-6ZM104,140h3v1h-3ZM49,141h5v1h-5ZM78,141h7v1h-7ZM104,141h4v2h-4ZM48,142h6v1h-6ZM78,142h6v1h-6ZM140,142h4v1h-4ZM48,143h5v2h-5ZM77,143h6v2h-6ZM105,143h4v2h-4ZM140,143h5v1h-5ZM141,144h4v1h-4ZM48,145h4v2h-4ZM76,145h6v2h-6ZM106,145h4v2h-4ZM141,145h5v1h-5ZM142,146h4v2h-4ZM48,147h3v2h-3ZM75,147h7v1h-7ZM107,147h3v1h-3ZM75,148h6v1h-6ZM107,148h4v2h-4ZM142,148h5v1h-5ZM48,149h2v2h-2ZM74,149h7v1h-7ZM143,149h4v1h-4ZM74,150h6v1h-6ZM107,150h5v2h-5ZM143,150h5v1h-5ZM48,151h32v1h-32ZM143,151h33v1h-33ZM48,152h128v5h-128ZM69,157h9v2h-9ZM106,157h8v2h-8ZM142,157h8v2h-8ZM69,159h8v2h-8ZM106,159h7v2h-7ZM142,159h7v2h-7ZM68,161h8v2h-8ZM105,161h8v1h-8ZM141,161h7v1h-7ZM105,162h7v1h-7ZM140,162h8v1h-8ZM67,163h8v2h-8ZM104,163h8v1h-8ZM140,163h7v2h-7ZM104,164h7v1h-7ZM67,165h7v1h-7ZM103,165h8v1h-8ZM139,165h7v1h-7ZM66,166h8v1h-8ZM103,166h7v1h-7ZM139,166h6v1h-6ZM175,166h1v2h-1ZM66,167h7v1h-7ZM102,167h8v2h-8ZM138,167h7v2h-7ZM65,168h8v1h-8ZM174,168h2v2h-2ZM65,169h7v1h-7ZM101,169h8v2h-8ZM137,169h7v1h-7ZM64,170h8v1h-8ZM136,170h8v1h-8ZM173,170h3v2h-3ZM64,171h7v1h-7ZM100,171h8v2h-8ZM136,171h7v1h-7ZM63,172h8v1h-8ZM136,172h6v1h-6ZM172,172h4v2h-4ZM63,173h7v1h-7ZM99,173h8v2h-8ZM135,173h7v1h-7ZM62,174h8v1h-8ZM135,174h6v1h-6ZM171,174h5v1h-5Z"/><path fill="rgba(60,60,60,64)" d="M87,25h1v1h-1Z"/><path fill="rgba(60,60,60,157)" d="M88,25h1v1h-1ZM110,25h1v1h-1ZM122,132h1v1h-1ZM62,172h1v1h-1ZM51,174h1v1h-1Z"/><path fill="rgba(60,60,60,150)" d="M89,25h5v1h-5ZM103,25h1v1h-1ZM120,50h2v1h-2ZM68,122h1v1h-1ZM116,132h1v1h-1Z"/><path fill="rgba(60,60,60,151)" d="M94,25h2v1h-2ZM101,25h1v1h-1ZM122,50h3v1h-3ZM117,132h1v1h-1ZM46,174h1v1h-1Z"/><path fill="rgba(60,60,60,152)" d="M96,25h3v1h-3ZM114,25h1v1h-1ZM125,50h2v1h-2ZM149,89h1v1h-1ZM70,109h1v1h-1ZM66,118h1v1h-1ZM166,124h1v1h-1ZM118,132h1v1h-1ZM142,150h1v1h-1Z"/><path fill="rgba(60,60,60,153)" d="M99,25h2v1h-2ZM113,25h1v1h-1ZM127,50h1v1h-1ZM67,122h1v1h-1ZM47,174h1v1h-1Z"/><path fill="rgba(60,60,60,148)" d="M102,25h1v1h-1Z"/><path fill="rgba(60,60,60,166)" d="M104,25h1v1h-1ZM85,96h1v1h-1Z"/><path fill="rgba(60,60,60,165)" d="M105,25h1v1h-1ZM92,108h1v1h-1ZM94,132h1v1h-1ZM144,141h1v1h-1Z"/><path fill="rgba(60,60,60,163)" d="M106,25h1v1h-1ZM146,83h1v1h-1ZM65,122h1v1h-1ZM95,132h1v1h-1Z"/><path fill="rgba(60,60,60,162)" d="M107,25h1v1h-1ZM148,87h1v1h-1ZM83,96h1v1h-1ZM139,143h1v1h-1Z"/><path fill="rgba(60,60,60,160)" d="M108,25h1v1h-1ZM115,82h1v1h-1ZM82,96h1v1h-1ZM131,115h1v1h-1ZM97,132h1v1h-1ZM82,147h1v1h-1Z"/><path fill="rgba(60,60,60,159)" d="M109,25h1v1h-1ZM105,61h1v1h-1ZM123,132h2v1h-2ZM104,144h1v1h-1Z"/><path fill="rgba(60,60,60,156)" d="M111,25h1v1h-1ZM128,50h1v1h-1ZM80,96h1v1h-1ZM66,122h1v1h-1ZM121,132h1v1h-1ZM49,174h1v1h-1Z"/><path fill="rgba(60,60,60,154)" d="M112,25h1v1h-1ZM115,25h1v1h-1ZM94,38h1v1h-1ZM71,107h1v1h-1ZM119,132h1v1h-1ZM110,145h1v1h-1Z"/><path fill="rgba(60,60,60,117)" d="M116,25h1v1h-1ZM137,65h1v1h-1ZM110,72h1v1h-1ZM160,112h1v1h-1ZM81,151h1v1h-1ZM105,151h1v1h-1ZM138,151h1v1h-1Z"/><path fill="rgba(60,60,60,1)" d="M117,25h1v1h-1ZM128,111h1v1h-1ZM105,135h1v1h-1ZM143,141h1v1h-1ZM82,145h1v1h-1Z"/><path fill="rgba(70,66,66,0)" d="M32,26h16v68h-16ZM32,94h15v2h-15ZM32,96h14v2h-14ZM32,98h13v4h-13ZM32,102h14v2h-14ZM32,104h15v1h-15ZM32,105h10v1h-10ZM44,105h4v2h-4ZM32,106h9v2h-9ZM45,107h3v1h-3ZM32,108h8v2h-8ZM46,108h2v2h-2ZM32,110h7v2h-7ZM47,110h1v2h-1ZM32,112h6v2h-6ZM32,114h5v3h-5ZM32,117h4v1h-4ZM32,118h3v2h-3ZM32,120h2v3h-2ZM32,123h1v5h-1ZM32,128h2v2h-2ZM32,130h3v2h-3ZM32,132h4v1h-4ZM33,133h3v1h-3ZM33,134h4v1h-4ZM34,135h3v1h-3ZM34,136h4v1h-4ZM35,137h3v1h-3ZM35,138h4v1h-4ZM36,139h3v1h-3ZM36,140h4v1h-4ZM37,141h3v1h-3ZM37,142h4v1h-4ZM38,143h3v1h-3ZM38,144h4v1h-4ZM47,144h1v2h-1ZM39,145h3v1h-3ZM39,146h4v1h-4ZM46,146h2v2h-2ZM40,147h3v1h-3ZM40,148h8v1h-8ZM41,149h7v1h-7ZM42,150h6v6h-6ZM41,156h7v2h-7ZM40,158h7v2h-7ZM39,160h7v2h-7ZM38,162h7v2h-7ZM37,164h7v2h-7ZM36,166h7v2h-7ZM35,168h7v2h-7ZM34,170h7v3h-7ZM33,173h7v1h-7ZM32,174h8v1h-8Z"/><path fill="rgba(70,66,66,40)" d="M82,26h1v1h-1ZM88,37h1v1h-1ZM129,123h1v1h-1Z"/><path fill="rgba(70,66,66,9)" d="M83,26h1v1h-1ZM79,31h1v1h-1ZM96,55h1v1h-1ZM80,67h1v1h-1ZM88,69h1v1h-1ZM59,86h1v1h-1ZM40,108h1v1h-1ZM115,115h1v1h-1ZM54,129h1v1h-1Z"/><path fill="rgba(60,60,60,29)" d="M87,26h1v1h-1ZM93,37h1v1h-1ZM70,108h1v1h-1ZM100,134h1v1h-1ZM78,140h1v1h-1Z"/><path fill="rgba(60,60,60,231)" d="M88,26h1v1h-1ZM71,108h1v1h-1ZM161,115h1v1h-1Z"/><path fill="rgba(60,60,60,255)" d="M89,26h28v2h-28ZM90,28h28v2h-28ZM91,30h28v1h-28ZM92,31h27v1h-27ZM92,32h28v2h-28ZM93,34h28v1h-28ZM93,35h29v1h-29ZM94,36h28v1h-28ZM95,37h28v2h-28ZM96,39h28v2h-28ZM97,41h28v2h-28ZM98,43h28v2h-28ZM101,51h29v1h-29ZM102,52h28v1h-28ZM102,53h29v1h-29ZM103,54h28v1h-28ZM103,55h29v1h-29ZM104,56h28v1h-28ZM104,57h29v1h-29ZM105,58h28v1h-28ZM105,59h29v1h-29ZM106,60h28v1h-28ZM106,61h29v1h-29ZM107,62h28v1h-28ZM107,63h29v2h-29ZM108,65h29v2h-29ZM109,67h29v2h-29ZM110,69h29v2h-29ZM111,71h29v2h-29ZM114,78h17v1h-17ZM140,78h1v1h-1ZM115,79h29v2h-29ZM116,81h29v2h-29ZM117,83h29v2h-29ZM118,85h29v2h-29ZM82,86h1v1h-1ZM81,87h2v1h-2ZM118,87h30v1h-30ZM81,88h3v1h-3ZM119,88h29v1h-29ZM80,89h4v1h-4ZM119,89h30v1h-30ZM80,90h5v1h-5ZM120,90h29v1h-29ZM79,91h6v1h-6ZM120,91h30v1h-30ZM79,92h7v1h-7ZM121,92h29v1h-29ZM78,93h8v1h-8ZM121,93h30v1h-30ZM78,94h9v1h-9ZM122,94h29v1h-29ZM77,95h10v1h-10ZM122,95h30v1h-30ZM123,96h29v1h-29ZM123,97h30v1h-30ZM82,104h12v1h-12ZM127,104h29v2h-29ZM73,105h20v1h-20ZM72,106h21v1h-21ZM128,106h29v2h-29ZM72,107h20v2h-20ZM129,108h29v2h-29ZM71,109h20v2h-20ZM130,110h29v2h-29ZM70,111h21v1h-21ZM70,112h20v1h-20ZM131,112h29v2h-29ZM69,113h21v1h-21ZM69,114h20v2h-20ZM132,114h29v2h-29ZM68,116h20v2h-20ZM132,116h30v1h-30ZM133,117h29v1h-29ZM67,118h21v1h-21ZM134,118h29v2h-29ZM67,119h20v1h-20ZM66,120h21v1h-21ZM135,120h29v2h-29ZM66,121h20v1h-20ZM136,122h29v2h-29ZM137,124h29v2h-29ZM137,126h30v1h-30ZM82,129h1v1h-1ZM62,130h20v1h-20ZM61,131h21v1h-21ZM61,132h20v1h-20ZM60,133h21v1h-21ZM90,133h9v2h-9ZM108,133h27v1h-27ZM141,133h30v1h-30ZM59,134h21v2h-21ZM106,134h29v1h-29ZM142,134h30v2h-30ZM89,135h11v1h-11ZM107,135h28v1h-28ZM59,136h20v1h-20ZM88,136h12v1h-12ZM107,136h29v1h-29ZM143,136h30v2h-30ZM58,137h21v1h-21ZM88,137h13v1h-13ZM108,137h28v1h-28ZM58,138h20v1h-20ZM87,138h14v1h-14ZM108,138h29v2h-29ZM144,138h30v2h-30ZM57,139h21v1h-21ZM87,139h15v2h-15ZM56,140h21v2h-21ZM109,140h29v1h-29ZM145,140h29v1h-29ZM86,141h17v2h-17ZM110,141h28v2h-28ZM145,141h30v1h-30ZM55,142h21v2h-21ZM146,142h29v1h-29ZM85,143h18v1h-18ZM110,143h29v1h-29ZM146,143h30v1h-30ZM54,144h21v2h-21ZM84,144h20v2h-20ZM111,144h28v1h-28ZM147,144h30v3h-30ZM111,145h29v2h-29ZM53,146h21v2h-21ZM84,146h21v1h-21ZM83,147h22v1h-22ZM112,147h29v1h-29ZM148,147h30v2h-30ZM52,148h21v2h-21ZM83,148h23v1h-23ZM113,148h28v2h-28ZM82,149h24v1h-24ZM149,149h30v2h-30ZM81,150h25v1h-25ZM113,150h29v1h-29ZM49,158h19v1h-19ZM48,159h20v1h-20ZM48,160h19v1h-19ZM47,161h20v1h-20ZM47,162h19v1h-19ZM46,163h20v2h-20ZM45,165h20v2h-20ZM44,167h20v2h-20ZM43,169h20v2h-20ZM42,171h20v2h-20ZM41,173h21v1h-21Z"/><path fill="rgba(60,60,60,119)" d="M117,26h1v1h-1ZM125,41h1v1h-1ZM109,50h1v1h-1ZM129,50h1v1h-1ZM142,98h1v1h-1ZM78,139h1v1h-1ZM96,151h1v1h-1ZM140,151h1v1h-1Z"/><path fill="rgba(70,66,66,10)" d="M81,27h1v1h-1ZM63,92h1v1h-1ZM97,102h1v1h-1ZM113,111h1v1h-1ZM49,115h1v1h-1ZM23,142h1v1h-1ZM113,159h1v1h-1Z"/><path fill="rgba(70,66,66,205)" d="M82,27h1v1h-1ZM62,65h1v1h-1ZM30,131h1v1h-1Z"/><path fill="rgba(70,66,66,104)" d="M83,27h1v1h-1ZM108,172h1v1h-1Z"/><path fill="rgba(60,60,60,110)" d="M88,27h1v1h-1ZM124,39h1v1h-1ZM96,42h1v1h-1ZM104,50h1v1h-1ZM100,51h1v1h-1ZM152,98h1v1h-1ZM88,118h1v1h-1ZM93,151h1v1h-1ZM133,151h1v1h-1Z"/><path fill="rgba(60,60,60,236)" d="M117,27h1v1h-1ZM125,42h1v1h-1ZM165,123h1v1h-1ZM110,144h1v1h-1ZM67,160h1v1h-1Z"/><path fill="rgba(60,60,60,19)" d="M118,27h1v1h-1ZM140,70h1v1h-1ZM159,109h1v1h-1ZM102,138h1v1h-1Z"/><path fill="rgba(70,66,66,101)" d="M81,28h1v1h-1ZM74,55h1v1h-1ZM69,93h1v1h-1ZM49,116h1v1h-1ZM105,159h1v1h-1Z"/><path fill="rgba(70,66,66,255)" d="M82,28h1v2h-1ZM82,30h2v1h-2ZM81,31h4v1h-4ZM80,32h5v1h-5ZM80,33h6v1h-6ZM79,34h7v2h-7ZM78,36h9v2h-9ZM77,38h11v1h-11ZM77,39h12v1h-12ZM76,40h13v2h-13ZM75,42h15v2h-15ZM74,44h17v2h-17ZM73,46h19v2h-19ZM72,48h21v2h-21ZM73,50h20v1h-20ZM73,51h19v1h-19ZM74,52h18v1h-18ZM74,53h17v1h-17ZM75,54h16v1h-16ZM75,55h15v1h-15ZM76,56h14v1h-14ZM67,57h1v1h-1ZM76,57h13v1h-13ZM96,57h1v2h-1ZM67,58h2v1h-2ZM77,58h11v1h-11ZM66,59h3v1h-3ZM78,59h10v1h-10ZM95,59h3v2h-3ZM66,60h4v1h-4ZM78,60h9v1h-9ZM65,61h5v1h-5ZM79,61h8v1h-8ZM94,61h5v2h-5ZM64,62h7v2h-7ZM79,62h7v1h-7ZM80,63h6v1h-6ZM93,63h7v2h-7ZM63,64h9v1h-9ZM80,64h5v1h-5ZM63,65h10v1h-10ZM81,65h3v2h-3ZM92,65h8v1h-8ZM62,66h11v1h-11ZM92,66h9v1h-9ZM62,67h12v1h-12ZM82,67h1v2h-1ZM91,67h10v1h-10ZM61,68h13v1h-13ZM91,68h11v1h-11ZM61,69h14v1h-14ZM90,69h12v1h-12ZM60,70h15v1h-15ZM89,70h14v2h-14ZM59,71h17v1h-17ZM59,72h18v2h-18ZM88,72h16v2h-16ZM58,74h20v2h-20ZM87,74h18v2h-18ZM59,76h19v1h-19ZM86,76h19v1h-19ZM60,77h17v2h-17ZM87,77h19v2h-19ZM61,79h15v1h-15ZM88,79h17v2h-17ZM62,80h14v1h-14ZM62,81h13v1h-13ZM89,81h15v2h-15ZM55,82h1v2h-1ZM63,82h12v1h-12ZM64,83h10v2h-10ZM90,83h13v1h-13ZM54,84h3v2h-3ZM90,84h12v1h-12ZM65,85h8v1h-8ZM91,85h10v2h-10ZM53,86h5v1h-5ZM66,86h7v2h-7ZM53,87h6v1h-6ZM92,87h8v1h-8ZM52,88h7v1h-7ZM67,88h5v1h-5ZM92,88h7v1h-7ZM51,89h9v1h-9ZM68,89h3v2h-3ZM93,89h6v1h-6ZM51,90h10v2h-10ZM94,90h4v1h-4ZM69,91h2v1h-2ZM94,91h3v1h-3ZM50,92h12v1h-12ZM95,92h2v1h-2ZM49,93h14v2h-14ZM95,93h1v1h-1ZM48,95h16v1h-16ZM48,96h17v1h-17ZM47,97h18v1h-18ZM47,98h19v1h-19ZM46,99h21v2h-21ZM47,101h20v1h-20ZM47,102h19v1h-19ZM48,103h18v1h-18ZM49,104h16v2h-16ZM50,106h14v1h-14ZM42,107h1v1h-1ZM51,107h13v1h-13ZM42,108h2v1h-2ZM51,108h12v1h-12ZM41,109h4v2h-4ZM52,109h11v1h-11ZM52,110h10v1h-10ZM121,110h1v1h-1ZM40,111h6v2h-6ZM53,111h9v1h-9ZM120,111h2v1h-2ZM54,112h7v2h-7ZM119,112h4v1h-4ZM39,113h8v2h-8ZM118,113h5v1h-5ZM55,114h5v1h-5ZM118,114h6v1h-6ZM39,115h9v1h-9ZM56,115h4v1h-4ZM117,115h7v1h-7ZM38,116h11v2h-11ZM56,116h3v1h-3ZM116,116h9v2h-9ZM57,117h2v1h-2ZM37,118h13v1h-13ZM115,118h11v1h-11ZM36,119h14v1h-14ZM114,119h12v1h-12ZM36,120h15v1h-15ZM113,120h14v2h-14ZM35,121h17v2h-17ZM112,122h16v1h-16ZM35,123h18v1h-18ZM111,123h17v1h-17ZM34,124h19v1h-19ZM111,124h18v1h-18ZM34,125h20v2h-20ZM112,125h17v1h-17ZM112,126h18v1h-18ZM35,127h19v2h-19ZM36,129h17v2h-17ZM37,131h15v2h-15ZM30,132h1v1h-1ZM29,133h2v1h-2ZM38,133h13v2h-13ZM29,134h3v1h-3ZM28,135h4v1h-4ZM39,135h11v2h-11ZM28,136h5v1h-5ZM27,137h6v1h-6ZM40,137h9v2h-9ZM27,138h7v1h-7ZM26,139h8v1h-8ZM41,139h7v2h-7ZM26,140h9v1h-9ZM25,141h10v1h-10ZM42,141h5v2h-5ZM25,142h11v1h-11ZM24,143h12v1h-12ZM43,143h3v2h-3ZM24,144h13v1h-13ZM23,145h14v1h-14ZM44,145h1v2h-1ZM23,146h15v1h-15ZM22,147h16v1h-16ZM22,148h17v2h-17ZM21,150h19v1h-19ZM22,151h19v3h-19ZM23,154h18v1h-18ZM23,155h17v1h-17ZM24,156h16v1h-16ZM25,157h14v2h-14ZM79,158h26v2h-26ZM115,158h26v1h-26ZM151,158h27v1h-27ZM26,159h12v2h-12ZM115,159h25v2h-25ZM151,159h26v1h-26ZM78,160h26v2h-26ZM150,160h27v1h-27ZM27,161h10v2h-10ZM114,161h26v1h-26ZM150,161h26v1h-26ZM77,162h26v2h-26ZM114,162h25v1h-25ZM149,162h27v1h-27ZM28,163h8v2h-8ZM113,163h26v1h-26ZM149,163h26v1h-26ZM76,164h26v2h-26ZM113,164h25v1h-25ZM148,164h27v1h-27ZM29,165h6v2h-6ZM112,165h26v1h-26ZM148,165h26v1h-26ZM75,166h26v2h-26ZM112,166h25v1h-25ZM147,166h27v1h-27ZM30,167h4v2h-4ZM111,167h25v2h-25ZM146,167h27v2h-27ZM74,168h26v2h-26ZM31,169h2v2h-2ZM111,169h24v1h-24ZM145,169h27v2h-27ZM73,170h26v2h-26ZM110,170h25v2h-25ZM32,171h1v1h-1ZM145,171h26v1h-26ZM72,172h26v1h-26ZM109,172h25v2h-25ZM144,172h27v1h-27ZM71,173h27v1h-27ZM143,173h27v1h-27Z"/><path fill="rgba(70,66,66,210)" d="M83,28h1v1h-1ZM86,62h1v1h-1ZM58,86h1v1h-1Z"/><path fill="rgba(60,60,60,17)" d="M88,28h1v1h-1ZM69,110h1v1h-1ZM77,142h1v1h-1ZM179,148h1v1h-1Z"/><path fill="rgba(60,60,60,221)" d="M89,28h1v1h-1ZM133,58h1v1h-1ZM110,71h1v1h-1ZM79,90h1v1h-1ZM119,90h1v1h-1ZM147,147h1v1h-1ZM64,167h1v1h-1Z"/><path fill="rgba(60,60,60,128)" d="M118,28h1v1h-1ZM115,50h1v1h-1ZM103,57h1v1h-1ZM179,149h1v1h-1Z"/><path fill="rgba(70,66,66,1)" d="M80,29h1v1h-1ZM86,32h1v1h-1ZM89,38h1v1h-1ZM101,64h1v1h-1ZM58,70h1v1h-1ZM106,86h1v1h-1ZM90,87h1v1h-1ZM67,91h1v1h-1ZM92,91h1v1h-1ZM45,108h1v1h-1ZM51,111h1v1h-1ZM34,120h1v1h-1ZM110,122h1v1h-1ZM130,124h1v1h-1ZM33,127h1v1h-1ZM31,131h1v1h-1ZM36,133h1v1h-1ZM24,140h1v1h-1ZM40,141h1v1h-1ZM23,158h1v1h-1ZM141,160h1v1h-1ZM137,168h1v1h-1Z"/><path fill="rgba(70,66,66,200)" d="M81,29h1v1h-1ZM135,170h1v1h-1Z"/><path fill="rgba(70,66,66,253)" d="M83,29h1v1h-1ZM77,59h1v1h-1ZM84,65h1v1h-1ZM101,67h1v1h-1ZM58,73h1v1h-1ZM105,76h1v1h-1ZM57,85h1v1h-1ZM101,85h1v1h-1ZM52,87h1v1h-1ZM58,118h1v1h-1ZM136,167h1v1h-1ZM135,169h1v1h-1Z"/><path fill="rgba(70,66,66,75)" d="M84,29h1v1h-1ZM109,83h1v1h-1ZM62,91h1v1h-1Z"/><path fill="rgba(60,60,60,81)" d="M89,29h1v1h-1ZM100,50h1v1h-1ZM78,91h1v1h-1ZM81,122h1v1h-1Z"/><path fill="rgba(60,60,60,245)" d="M118,29h1v1h-1ZM119,31h1v1h-1ZM120,33h1v1h-1ZM127,106h1v1h-1ZM77,140h1v1h-1Z"/><path fill="rgba(60,60,60,45)" d="M119,29h1v1h-1ZM90,114h1v1h-1Z"/><path fill="rgba(70,66,66,97)" d="M80,30h1v1h-1ZM31,132h1v1h-1ZM32,134h1v1h-1ZM176,162h1v1h-1Z"/><path fill="rgba(70,66,66,254)" d="M81,30h1v1h-1ZM88,58h1v1h-1ZM100,65h1v1h-1ZM93,90h1v1h-1ZM50,91h1v1h-1ZM120,110h1v1h-1ZM38,115h1v1h-1ZM129,125h1v1h-1ZM24,157h1v1h-1ZM140,159h1v1h-1ZM114,160h1v1h-1ZM144,171h1v1h-1Z"/><path fill="rgba(70,66,66,208)" d="M84,30h1v1h-1ZM76,58h1v1h-1ZM96,93h1v1h-1ZM136,168h1v1h-1Z"/><path fill="rgba(70,66,66,12)" d="M85,30h1v1h-1ZM92,53h1v1h-1ZM100,107h1v1h-1ZM42,145h1v1h-1ZM149,159h1v1h-1ZM175,165h1v1h-1ZM142,172h1v1h-1ZM107,173h1v1h-1Z"/><path fill="rgba(60,60,60,4)" d="M89,30h1v1h-1ZM123,36h1v1h-1ZM83,143h1v1h-1Z"/><path fill="rgba(60,60,60,210)" d="M90,30h1v1h-1ZM141,103h4v1h-4Z"/><path fill="rgba(60,60,60,155)" d="M119,30h1v1h-1ZM152,95h1v1h-1ZM128,109h1v1h-1ZM162,116h1v1h-1ZM98,132h1v1h-1ZM120,132h1v1h-1ZM48,174h1v1h-1Z"/><path fill="rgba(70,66,66,219)" d="M80,31h1v1h-1ZM104,73h1v1h-1ZM61,80h1v1h-1ZM45,145h1v1h-1Z"/><path fill="rgba(70,66,66,83)" d="M85,31h1v1h-1ZM63,84h1v1h-1ZM38,136h1v1h-1Z"/><path fill="rgba(60,60,60,78)" d="M90,31h1v1h-1ZM136,126h1v1h-1ZM103,141h1v1h-1Z"/><path fill="rgba(60,60,60,252)" d="M91,31h1v1h-1ZM126,44h1v1h-1ZM141,78h1v1h-1ZM144,80h1v1h-1ZM68,115h1v1h-1ZM133,118h1v1h-1ZM89,134h1v1h-1ZM109,141h1v1h-1ZM106,150h1v1h-1Z"/><path fill="rgba(60,60,60,48)" d="M120,31h1v1h-1ZM92,109h1v1h-1ZM129,112h1v1h-1Z"/><path fill="rgba(70,66,66,93)" d="M79,32h1v1h-1ZM107,118h1v1h-1ZM24,141h1v1h-1Z"/><path fill="rgba(70,66,66,189)" d="M85,32h1v1h-1ZM77,73h1v1h-1ZM92,89h1v1h-1ZM98,102h1v1h-1Z"/><path fill="rgba(60,60,60,193)" d="M91,32h1v1h-1ZM114,45h1v1h-1ZM108,140h1v1h-1Z"/><path fill="rgba(60,60,60,171)" d="M120,32h1v1h-1ZM93,36h1v1h-1ZM91,132h1v1h-1ZM142,132h28v1h-28ZM66,163h1v1h-1Z"/><path fill="rgba(70,66,66,21)" d="M78,33h1v1h-1ZM70,59h1v1h-1ZM103,84h1v1h-1ZM50,109h1v1h-1ZM110,115h1v1h-1ZM49,139h1v1h-1Z"/><path fill="rgba(70,66,66,225)" d="M79,33h1v1h-1ZM46,112h1v1h-1ZM150,159h1v1h-1Z"/><path fill="rgba(70,66,66,78)" d="M86,33h1v1h-1ZM106,76h1v1h-1ZM71,91h1v1h-1ZM36,132h1v1h-1Z"/><path fill="rgba(60,60,60,72)" d="M91,33h1v1h-1ZM88,96h1v1h-1ZM56,138h1v1h-1ZM108,141h1v1h-1Z"/><path fill="rgba(60,60,60,50)" d="M121,33h1v1h-1ZM150,90h1v1h-1Z"/><path fill="rgba(70,66,66,110)" d="M78,34h1v1h-1Z"/><path fill="rgba(70,66,66,181)" d="M86,34h1v1h-1ZM57,74h1v1h-1ZM50,90h1v1h-1ZM33,125h1v1h-1ZM146,166h1v1h-1Z"/><path fill="rgba(60,60,60,164)" d="M92,34h1v1h-1ZM144,79h1v1h-1ZM84,96h1v1h-1ZM141,148h1v1h-1Z"/><path fill="rgba(60,60,60,192)" d="M121,34h1v1h-1ZM115,45h1v1h-1ZM57,137h1v1h-1Z"/><path fill="rgba(60,60,60,6)" d="M122,34h1v1h-1ZM108,69h1v1h-1ZM78,90h1v1h-1ZM87,135h1v1h-1ZM110,147h1v1h-1Z"/><path fill="rgba(70,66,66,14)" d="M77,35h1v1h-1ZM47,94h1v1h-1ZM66,104h1v1h-1ZM38,112h1v1h-1Z"/><path fill="rgba(70,66,66,212)" d="M78,35h1v1h-1ZM75,56h1v1h-1ZM105,75h1v1h-1ZM65,104h1v1h-1ZM56,117h1v1h-1ZM36,131h1v1h-1ZM29,132h1v1h-1ZM51,133h1v1h-1Z"/><path fill="rgba(70,66,66,250)" d="M86,35h1v1h-1ZM65,60h1v1h-1ZM92,64h1v1h-1ZM102,69h1v1h-1ZM105,79h1v1h-1ZM73,85h1v1h-1ZM109,85h1v1h-1ZM108,86h2v1h-2ZM107,87h4v2h-4ZM99,88h1v1h-1ZM106,89h6v2h-6ZM97,91h1v1h-1ZM105,91h8v1h-8ZM104,92h9v1h-9ZM103,93h11v2h-11ZM102,95h13v2h-13ZM101,97h15v1h-15ZM100,98h16v1h-16ZM100,99h17v1h-17ZM99,100h18v1h-18ZM98,101h20v1h-20ZM99,102h19v2h-19ZM100,104h17v1h-17ZM101,105h15v2h-15ZM102,107h13v1h-13ZM102,108h12v1h-12ZM103,109h10v1h-10ZM104,110h9v1h-9ZM104,111h8v1h-8ZM105,112h6v2h-6ZM106,114h4v1h-4ZM107,115h2v1h-2ZM124,115h1v1h-1ZM107,116h1v2h-1ZM36,143h1v1h-1ZM27,163h1v1h-1ZM110,169h1v1h-1Z"/><path fill="rgba(70,66,66,58)" d="M87,35h1v1h-1ZM116,114h1v1h-1ZM141,159h1v1h-1ZM145,167h1v1h-1Z"/><path fill="rgba(60,60,60,55)" d="M92,35h1v1h-1ZM149,88h1v1h-1ZM131,116h1v1h-1Z"/><path fill="rgba(60,60,60,69)" d="M122,35h1v1h-1ZM89,132h1v1h-1ZM57,136h1v1h-1ZM86,138h1v1h-1Z"/><path fill="rgba(70,66,66,117)" d="M77,36h1v1h-1ZM93,61h1v1h-1ZM46,111h1v1h-1ZM47,142h1v1h-1Z"/><path fill="rgba(70,66,66,185)" d="M87,36h1v1h-1Z"/><path fill="rgba(60,60,60,196)" d="M122,36h1v1h-1ZM111,45h1v1h-1ZM136,103h1v1h-1ZM155,103h1v1h-1Z"/><path fill="rgba(70,66,66,8)" d="M76,37h1v1h-1ZM87,62h1v1h-1ZM62,63h1v1h-1ZM55,117h1v1h-1ZM34,129h1v1h-1ZM38,137h1v1h-1ZM25,138h1v1h-1ZM39,139h1v1h-1ZM41,150h1v1h-1Z"/><path fill="rgba(70,66,66,215)" d="M77,37h1v1h-1ZM74,54h1v1h-1ZM81,67h1v1h-1ZM109,115h1v1h-1ZM24,142h1v1h-1ZM46,143h1v1h-1Z"/><path fill="rgba(70,66,66,248)" d="M87,37h1v1h-1ZM79,63h1v1h-1ZM63,94h1v1h-1ZM59,116h1v1h-1ZM38,147h1v1h-1ZM39,149h1v1h-1ZM170,173h1v1h-1Z"/><path fill="rgba(60,60,60,237)" d="M94,37h1v1h-1ZM103,56h1v1h-1ZM82,85h1v1h-1ZM74,104h5v1h-5ZM80,104h1v1h-1ZM70,110h1v1h-1ZM160,113h1v1h-1ZM132,132h1v1h-1Z"/><path fill="rgba(60,60,60,108)" d="M123,37h1v1h-1ZM103,50h1v1h-1ZM95,151h1v1h-1ZM106,151h1v1h-1Z"/><path fill="rgba(70,66,66,112)" d="M76,38h1v1h-1ZM65,105h1v1h-1ZM104,113h1v1h-1ZM28,133h1v1h-1Z"/><path fill="rgba(70,66,66,168)" d="M88,38h1v1h-1ZM96,56h1v1h-1ZM73,86h1v1h-1ZM38,146h1v1h-1Z"/><path fill="rgba(60,60,60,213)" d="M123,38h1v1h-1ZM131,54h1v1h-1ZM82,130h1v1h-1ZM134,132h1v1h-1ZM46,162h1v1h-1Z"/><path fill="rgba(60,60,60,9)" d="M124,38h1v1h-1Z"/><path fill="rgba(70,66,66,17)" d="M75,39h1v1h-1ZM72,52h1v1h-1ZM69,57h1v1h-1ZM83,69h1v1h-1ZM88,83h1v1h-1ZM103,91h1v1h-1ZM115,108h1v1h-1ZM27,134h1v1h-1ZM39,159h1v1h-1Z"/><path fill="rgba(70,66,66,233)" d="M76,39h1v1h-1ZM108,85h1v1h-1ZM117,100h1v1h-1ZM62,110h1v1h-1Z"/><path fill="rgba(70,66,66,50)" d="M89,39h1v1h-1ZM61,114h1v1h-1ZM127,119h1v1h-1Z"/><path fill="rgba(60,60,60,32)" d="M94,39h1v1h-1ZM104,60h1v1h-1ZM88,95h1v1h-1Z"/><path fill="rgba(60,60,60,235)" d="M95,39h1v1h-1ZM139,70h1v1h-1ZM81,86h1v1h-1ZM83,87h1v1h-1ZM131,132h1v1h-1ZM143,138h1v1h-1ZM75,144h1v1h-1Z"/><path fill="rgba(70,66,66,105)" d="M75,40h1v1h-1ZM69,58h1v1h-1ZM81,68h1v1h-1ZM41,154h1v1h-1Z"/><path fill="rgba(70,66,66,149)" d="M89,40h1v1h-1ZM88,59h1v1h-1ZM178,157h1v1h-1ZM71,174h1v1h-1Z"/><path fill="rgba(60,60,60,136)" d="M95,40h1v1h-1ZM126,43h1v1h-1ZM134,98h1v1h-1ZM161,114h1v1h-1ZM107,138h1v1h-1Z"/><path fill="rgba(60,60,60,225)" d="M124,40h1v1h-1ZM135,62h1v1h-1ZM120,92h1v1h-1ZM121,94h1v1h-1Z"/><path fill="rgba(60,60,60,10)" d="M125,40h1v1h-1ZM84,87h1v1h-1ZM64,169h1v1h-1Z"/><path fill="rgba(70,66,66,24)" d="M74,41h1v1h-1ZM71,47h1v1h-1ZM87,71h1v1h-1ZM68,92h1v1h-1ZM34,137h1v1h-1Z"/><path fill="rgba(70,66,66,229)" d="M75,41h1v1h-1ZM91,53h1v1h-1ZM67,89h1v1h-1ZM47,96h1v1h-1ZM112,121h1v1h-1ZM52,122h1v1h-1ZM33,137h1v1h-1ZM48,139h1v1h-1Z"/><path fill="rgba(70,66,66,245)" d="M89,41h1v1h-1ZM48,104h1v1h-1ZM61,112h1v1h-1ZM55,115h1v1h-1ZM21,149h1v1h-1ZM35,165h1v1h-1Z"/><path fill="rgba(70,66,66,49)" d="M90,41h1v1h-1ZM48,114h1v1h-1ZM54,115h1v1h-1ZM56,118h1v1h-1ZM40,149h1v1h-1ZM112,162h1v1h-1ZM35,167h1v1h-1Z"/><path fill="rgba(60,60,60,27)" d="M95,41h1v1h-1ZM137,64h1v1h-1ZM79,138h1v1h-1Z"/><path fill="rgba(60,60,60,232)" d="M96,41h1v1h-1ZM136,64h1v1h-1ZM159,111h1v1h-1ZM139,144h1v1h-1ZM179,150h1v1h-1Z"/><path fill="rgba(70,66,66,107)" d="M74,42h1v1h-1ZM94,59h1v1h-1ZM89,84h1v1h-1ZM117,113h1v1h-1Z"/><path fill="rgba(70,66,66,152)" d="M90,42h1v1h-1ZM59,87h1v1h-1ZM111,87h1v1h-1ZM118,101h1v1h-1Z"/><path fill="rgba(60,60,60,33)" d="M126,42h1v1h-1ZM103,58h1v1h-1ZM75,146h1v1h-1ZM50,149h1v1h-1Z"/><path fill="rgba(70,66,66,22)" d="M73,43h1v1h-1ZM84,67h1v1h-1ZM75,68h1v1h-1ZM60,80h1v1h-1ZM105,81h1v1h-1ZM57,83h1v1h-1ZM63,110h1v1h-1ZM36,141h1v1h-1ZM114,157h1v1h-1Z"/><path fill="rgba(70,66,66,221)" d="M74,43h1v1h-1ZM67,100h1v1h-1ZM114,108h1v1h-1ZM47,141h1v1h-1ZM114,159h1v1h-1ZM103,162h1v1h-1Z"/><path fill="rgba(70,66,66,235)" d="M90,43h1v1h-1ZM64,106h1v1h-1ZM40,110h1v1h-1ZM40,155h1v1h-1ZM75,165h1v1h-1ZM74,167h1v1h-1ZM30,169h1v1h-1Z"/><path fill="rgba(70,66,66,30)" d="M91,43h1v1h-1ZM98,58h1v1h-1ZM99,60h1v1h-1ZM66,89h1v1h-1ZM118,100h1v1h-1ZM111,121h1v1h-1ZM53,122h1v1h-1ZM102,166h1v1h-1Z"/><path fill="rgba(60,60,60,11)" d="M96,43h1v1h-1ZM79,88h1v1h-1ZM83,130h1v1h-1ZM80,136h1v1h-1ZM141,146h1v1h-1Z"/><path fill="rgba(60,60,60,223)" d="M97,43h1v1h-1ZM156,105h1v1h-1ZM178,148h1v1h-1ZM47,160h1v1h-1ZM44,166h1v1h-1Z"/><path fill="rgba(70,66,66,127)" d="M73,44h1v1h-1ZM83,68h1v1h-1ZM149,160h1v1h-1Z"/><path fill="rgba(70,66,66,153)" d="M91,44h1v1h-1ZM59,70h1v1h-1ZM86,78h1v1h-1ZM50,118h1v1h-1ZM34,122h1v1h-1Z"/><path fill="rgba(60,60,60,98)" d="M97,44h1v1h-1ZM131,53h1v1h-1ZM118,89h1v1h-1ZM64,168h1v1h-1Z"/><path fill="rgba(60,60,60,46)" d="M127,44h1v1h-1ZM144,78h1v1h-1ZM107,132h1v1h-1ZM107,139h1v1h-1Z"/><path fill="rgba(70,66,66,15)" d="M72,45h1v1h-1ZM100,62h1v1h-1ZM81,69h1v1h-1ZM108,118h1v1h-1ZM176,163h1v1h-1Z"/><path fill="rgba(70,66,66,220)" d="M73,45h1v1h-1ZM69,59h1v1h-1ZM98,90h1v1h-1Z"/><path fill="rgba(70,66,66,234)" d="M91,45h1v1h-1ZM70,61h1v1h-1ZM110,86h1v1h-1ZM42,106h1v1h-1Z"/><path fill="rgba(70,66,66,16)" d="M92,45h1v1h-1ZM99,90h1v1h-1ZM53,131h1v1h-1ZM43,147h1v1h-1Z"/><path fill="rgba(60,60,60,7)" d="M97,45h1v1h-1ZM106,65h1v1h-1ZM54,141h1v1h-1ZM53,143h1v1h-1Z"/><path fill="rgba(60,60,60,169)" d="M98,45h1v1h-1ZM89,115h1v1h-1ZM132,117h1v1h-1ZM92,132h1v1h-1Z"/><path fill="rgba(60,60,60,212)" d="M99,45h1v1h-1ZM150,103h4v1h-4ZM88,117h1v1h-1ZM79,136h1v1h-1Z"/><path fill="rgba(60,60,60,208)" d="M100,45h1v1h-1ZM109,69h1v1h-1Z"/><path fill="rgba(60,60,60,207)" d="M101,45h1v1h-1ZM45,164h1v1h-1ZM43,168h1v1h-1Z"/><path fill="rgba(60,60,60,206)" d="M102,45h1v1h-1ZM91,110h1v1h-1ZM135,134h1v1h-1Z"/><path fill="rgba(60,60,60,205)" d="M103,45h1v1h-1ZM101,52h1v1h-1ZM126,132h1v1h-1ZM106,149h1v1h-1Z"/><path fill="rgba(60,60,60,203)" d="M104,45h2v1h-2ZM142,136h1v1h-1Z"/><path fill="rgba(60,60,60,201)" d="M106,45h2v1h-2Z"/><path fill="rgba(60,60,60,199)" d="M108,45h1v1h-1ZM107,65h1v1h-1Z"/><path fill="rgba(60,60,60,198)" d="M109,45h1v1h-1ZM118,88h1v1h-1ZM102,140h1v1h-1Z"/><path fill="rgba(60,60,60,197)" d="M110,45h1v1h-1Z"/><path fill="rgba(60,60,60,195)" d="M112,45h1v1h-1ZM67,116h1v1h-1ZM88,135h1v1h-1ZM111,147h1v1h-1ZM42,170h1v1h-1Z"/><path fill="rgba(60,60,60,194)" d="M113,45h1v1h-1Z"/><path fill="rgba(60,60,60,191)" d="M116,45h1v1h-1ZM132,103h3v1h-3ZM106,135h1v1h-1ZM173,137h1v1h-1Z"/><path fill="rgba(60,60,60,189)" d="M117,45h2v1h-2ZM130,103h1v1h-1Z"/><path fill="rgba(60,60,60,187)" d="M119,45h2v1h-2ZM126,103h1v1h-1ZM129,103h1v1h-1ZM72,105h1v1h-1ZM133,119h1v1h-1ZM136,125h1v1h-1ZM141,134h1v1h-1ZM87,137h1v1h-1ZM138,141h1v1h-1ZM84,143h1v1h-1ZM60,174h1v1h-1Z"/><path fill="rgba(60,60,60,185)" d="M121,45h2v1h-2ZM127,103h1v1h-1ZM134,121h1v1h-1ZM41,172h1v1h-1Z"/><path fill="rgba(60,60,60,183)" d="M123,45h1v1h-1ZM130,113h1v1h-1ZM89,133h1v1h-1ZM65,165h1v1h-1ZM59,174h1v1h-1Z"/><path fill="rgba(60,60,60,178)" d="M124,45h1v1h-1ZM56,174h1v1h-1Z"/><path fill="rgba(60,60,60,161)" d="M125,45h1v1h-1ZM150,91h1v1h-1ZM96,132h1v1h-1ZM67,161h1v1h-1Z"/><path fill="rgba(60,60,60,167)" d="M126,45h1v1h-1ZM147,85h1v1h-1ZM151,93h1v1h-1ZM77,94h1v1h-1ZM93,132h1v1h-1ZM125,132h1v1h-1ZM73,149h1v1h-1ZM52,174h1v1h-1Z"/><path fill="rgba(60,60,60,89)" d="M127,45h1v1h-1ZM172,134h1v1h-1ZM146,146h1v1h-1Z"/><path fill="rgba(70,66,66,126)" d="M72,46h1v1h-1ZM71,48h1v1h-1ZM103,163h1v1h-1ZM30,170h1v1h-1Z"/><path fill="rgba(70,66,66,122)" d="M92,46h1v1h-1ZM93,48h1v1h-1ZM61,66h1v1h-1ZM77,78h1v1h-1ZM54,82h1v1h-1ZM46,97h1v1h-1Z"/><path fill="rgba(70,66,66,240)" d="M72,47h1v1h-1ZM92,47h1v1h-1ZM103,71h1v1h-1ZM148,163h1v1h-1ZM100,168h1v1h-1ZM171,171h1v1h-1Z"/><path fill="rgba(70,66,66,31)" d="M93,47h1v1h-1ZM79,65h1v1h-1ZM58,77h1v1h-1ZM114,92h1v1h-1ZM115,94h1v1h-1ZM101,168h1v1h-1ZM108,171h1v1h-1Z"/><path fill="rgba(70,66,66,147)" d="M71,49h1v1h-1ZM57,84h1v1h-1ZM101,95h1v1h-1ZM61,113h1v1h-1ZM172,170h1v1h-1ZM72,174h25v1h-25ZM109,174h24v1h-24Z"/><path fill="rgba(70,66,66,218)" d="M93,49h1v1h-1ZM94,60h1v1h-1ZM100,87h1v1h-1ZM52,131h1v1h-1ZM174,165h1v1h-1Z"/><path fill="rgba(70,66,66,38)" d="M71,50h1v1h-1ZM71,61h1v1h-1ZM116,96h1v1h-1ZM117,105h1v1h-1ZM27,165h1v1h-1ZM36,165h1v1h-1ZM146,165h1v1h-1Z"/><path fill="rgba(70,66,66,247)" d="M72,50h1v1h-1ZM78,61h1v1h-1ZM59,88h1v1h-1ZM50,107h1v1h-1ZM121,109h1v1h-1ZM128,123h1v1h-1ZM53,124h1v1h-1ZM26,161h1v1h-1ZM34,167h1v1h-1Z"/><path fill="rgba(70,66,66,166)" d="M93,50h1v1h-1ZM105,80h1v1h-1ZM60,115h1v1h-1ZM35,120h1v1h-1ZM25,160h1v1h-1ZM72,170h1v1h-1Z"/><path fill="rgba(60,60,60,105)" d="M101,50h1v1h-1ZM86,103h1v1h-1ZM125,103h1v1h-1ZM91,111h1v1h-1ZM82,131h1v1h-1Z"/><path fill="rgba(60,60,60,106)" d="M102,50h1v1h-1ZM78,122h1v1h-1ZM142,137h1v1h-1ZM147,148h1v1h-1Z"/><path fill="rgba(60,60,60,112)" d="M105,50h1v1h-1ZM150,98h1v1h-1ZM83,129h1v1h-1ZM102,139h1v1h-1ZM84,151h1v1h-1ZM90,151h1v1h-1ZM135,151h1v1h-1ZM50,157h1v1h-1ZM52,157h5v1h-5Z"/><path fill="rgba(60,60,60,114)" d="M106,50h1v1h-1ZM102,55h1v1h-1ZM148,98h1v1h-1ZM140,132h1v1h-1ZM82,151h1v1h-1ZM136,151h1v1h-1ZM64,157h3v1h-3Z"/><path fill="rgba(60,60,60,116)" d="M107,50h1v1h-1ZM109,70h1v1h-1ZM144,98h3v1h-3ZM91,103h1v1h-1ZM77,122h1v1h-1ZM112,132h1v1h-1ZM54,142h1v1h-1ZM98,151h7v1h-7Z"/><path fill="rgba(60,60,60,118)" d="M108,50h1v1h-1ZM84,88h1v1h-1ZM92,103h1v1h-1ZM76,122h1v1h-1ZM79,137h1v1h-1ZM97,151h1v1h-1ZM139,151h1v1h-1Z"/><path fill="rgba(60,60,60,122)" d="M110,50h1v1h-1ZM135,61h1v1h-1ZM120,93h1v1h-1ZM65,120h1v1h-1Z"/><path fill="rgba(60,60,60,124)" d="M111,50h1v1h-1ZM93,106h1v1h-1ZM74,122h1v1h-1ZM106,148h1v1h-1ZM141,151h1v1h-1ZM68,159h1v1h-1Z"/><path fill="rgba(60,60,60,126)" d="M112,50h1v1h-1ZM114,50h1v1h-1Z"/><path fill="rgba(60,60,60,127)" d="M113,50h1v1h-1ZM90,113h1v1h-1ZM73,122h1v1h-1ZM137,127h1v1h-1ZM109,143h1v1h-1Z"/><path fill="rgba(60,60,60,146)" d="M116,50h1v1h-1ZM124,98h1v1h-1ZM165,127h1v1h-1ZM76,143h1v1h-1ZM72,150h1v1h-1Z"/><path fill="rgba(60,60,60,149)" d="M117,50h3v1h-3ZM126,105h1v1h-1ZM45,174h1v1h-1Z"/><path fill="rgba(60,60,60,2)" d="M130,50h1v1h-1ZM100,52h1v1h-1ZM132,54h1v1h-1ZM71,105h1v1h-1ZM92,110h1v1h-1ZM136,134h1v1h-1ZM86,137h1v1h-1ZM103,140h1v1h-1ZM108,142h1v1h-1ZM66,165h1v1h-1ZM41,170h1v1h-1Z"/><path fill="rgba(70,66,66,150)" d="M72,51h1v1h-1ZM85,76h1v1h-1ZM103,83h1v1h-1ZM113,119h1v1h-1ZM36,164h1v1h-1ZM99,171h1v1h-1Z"/><path fill="rgba(70,66,66,251)" d="M92,51h1v1h-1ZM61,91h1v1h-1ZM115,117h1v1h-1ZM72,171h1v1h-1Z"/><path fill="rgba(70,66,66,47)" d="M93,51h1v1h-1ZM92,90h1v1h-1ZM64,94h1v1h-1Z"/><path fill="rgba(60,60,60,99)" d="M130,51h1v1h-1ZM132,55h1v1h-1ZM83,103h1v1h-1ZM81,133h1v1h-1Z"/><path fill="rgba(70,66,66,222)" d="M73,52h1v1h-1ZM100,97h1v1h-1ZM114,118h1v1h-1ZM143,172h1v1h-1Z"/><path fill="rgba(70,66,66,134)" d="M92,52h1v1h-1ZM116,97h1v1h-1ZM133,174h1v1h-1Z"/><path fill="rgba(60,60,60,204)" d="M130,52h1v1h-1ZM109,142h1v1h-1Z"/><path fill="rgba(60,60,60,5)" d="M131,52h1v1h-1ZM77,92h1v1h-1ZM172,133h1v1h-1ZM141,136h1v1h-1ZM107,140h1v1h-1Z"/><path fill="rgba(70,66,66,124)" d="M73,53h1v1h-1ZM43,106h1v1h-1ZM113,110h1v1h-1ZM29,131h1v1h-1ZM101,167h1v1h-1Z"/><path fill="rgba(60,60,60,111)" d="M101,53h1v1h-1ZM133,57h1v1h-1ZM79,89h1v1h-1ZM151,98h1v1h-1ZM89,103h1v1h-1ZM94,104h1v1h-1ZM111,132h1v1h-1ZM135,133h1v1h-1ZM91,151h2v1h-2ZM132,151h1v1h-1ZM134,151h1v1h-1ZM51,157h1v1h-1ZM47,159h1v1h-1Z"/><path fill="rgba(70,66,66,20)" d="M73,54h1v1h-1ZM92,62h1v1h-1ZM120,108h1v1h-1ZM39,110h1v1h-1ZM103,112h1v1h-1Z"/><path fill="rgba(70,66,66,111)" d="M91,54h1v1h-1ZM47,95h1v1h-1ZM33,136h1v1h-1ZM45,146h1v1h-1ZM111,165h1v1h-1Z"/><path fill="rgba(60,60,60,15)" d="M101,54h1v1h-1ZM87,93h1v1h-1ZM135,132h1v1h-1ZM65,167h1v1h-1Z"/><path fill="rgba(60,60,60,219)" d="M102,54h1v1h-1ZM69,112h1v1h-1ZM87,119h1v1h-1ZM101,138h1v1h-1Z"/><path fill="rgba(70,66,66,42)" d="M67,55h1v1h-1ZM112,88h1v1h-1ZM123,111h1v1h-1ZM60,116h1v1h-1ZM33,123h1v1h-1Z"/><path fill="rgba(70,66,66,2)" d="M68,55h1v1h-1ZM59,79h1v1h-1ZM50,88h1v1h-1ZM91,89h1v1h-1ZM48,92h1v1h-1ZM71,92h1v1h-1ZM67,98h1v1h-1ZM116,107h1v1h-1ZM101,109h1v1h-1ZM37,114h1v1h-1ZM112,119h1v1h-1ZM37,135h1v1h-1ZM21,146h1v1h-1ZM22,156h1v1h-1ZM139,164h1v1h-1Z"/><path fill="rgba(70,66,66,202)" d="M90,55h1v1h-1ZM66,98h1v1h-1ZM105,114h1v1h-1ZM140,160h1v1h-1ZM77,161h1v1h-1Z"/><path fill="rgba(70,66,66,32)" d="M66,56h1v1h-1ZM76,70h1v1h-1ZM86,73h1v1h-1ZM45,98h1v1h-1ZM124,113h1v1h-1Z"/><path fill="rgba(70,66,66,228)" d="M67,56h1v1h-1ZM113,92h1v1h-1ZM46,101h1v1h-1ZM53,112h1v1h-1ZM49,117h1v1h-1ZM76,163h1v1h-1ZM143,174h27v1h-27Z"/><path fill="rgba(70,66,66,74)" d="M68,56h1v1h-1Z"/><path fill="rgba(70,66,66,13)" d="M74,56h1v1h-1ZM61,65h1v1h-1ZM74,66h1v1h-1ZM64,108h1v1h-1ZM50,137h1v1h-1ZM103,164h1v1h-1Z"/><path fill="rgba(70,66,66,81)" d="M90,56h1v1h-1ZM59,78h1v1h-1ZM40,140h1v1h-1ZM41,151h1v1h-1Z"/><path fill="rgba(70,66,66,4)" d="M95,56h1v1h-1ZM94,58h1v1h-1ZM73,88h1v1h-1ZM102,92h1v1h-1ZM53,114h1v1h-1ZM35,118h1v1h-1ZM32,133h1v1h-1ZM22,144h1v1h-1ZM77,159h1v1h-1ZM104,162h1v1h-1ZM138,166h1v1h-1ZM145,166h1v1h-1ZM135,172h1v1h-1Z"/><path fill="rgba(70,66,66,62)" d="M97,56h1v1h-1ZM36,117h1v1h-1ZM20,149h1v1h-1Z"/><path fill="rgba(60,60,60,31)" d="M102,56h1v1h-1ZM152,94h1v1h-1ZM163,117h1v1h-1ZM143,140h1v1h-1ZM76,144h1v1h-1ZM74,148h1v1h-1Z"/><path fill="rgba(60,60,60,228)" d="M132,56h1v1h-1ZM52,147h1v1h-1Z"/><path fill="rgba(60,60,60,23)" d="M133,56h1v1h-1Z"/><path fill="rgba(70,66,66,140)" d="M66,57h1v1h-1Z"/><path fill="rgba(70,66,66,211)" d="M68,57h1v1h-1ZM129,127h1v1h-1ZM32,172h1v1h-1Z"/><path fill="rgba(70,66,66,79)" d="M75,57h1v1h-1ZM102,93h1v1h-1ZM37,115h1v1h-1ZM34,128h1v1h-1ZM39,138h1v1h-1ZM33,171h1v1h-1Z"/><path fill="rgba(70,66,66,170)" d="M89,57h1v1h-1ZM51,88h1v1h-1ZM23,156h1v1h-1Z"/><path fill="rgba(70,66,66,77)" d="M95,57h1v1h-1ZM57,73h1v1h-1ZM100,88h1v1h-1ZM67,90h1v1h-1ZM23,143h1v1h-1ZM20,151h1v1h-1ZM110,167h1v1h-1ZM70,174h1v1h-1Z"/><path fill="rgba(70,66,66,177)" d="M97,57h1v1h-1ZM85,64h1v1h-1ZM35,166h1v1h-1Z"/><path fill="rgba(70,66,66,41)" d="M65,58h1v1h-1ZM110,84h1v1h-1ZM93,92h1v1h-1ZM128,121h1v1h-1Z"/><path fill="rgba(70,66,66,242)" d="M66,58h1v1h-1ZM75,70h1v1h-1ZM94,92h1v1h-1ZM101,96h1v1h-1ZM113,109h1v1h-1ZM126,119h1v1h-1Z"/><path fill="rgba(70,66,66,5)" d="M75,58h1v1h-1ZM73,64h1v1h-1ZM67,102h1v1h-1ZM104,114h1v1h-1ZM48,141h1v1h-1Z"/><path fill="rgba(70,66,66,57)" d="M89,58h1v1h-1ZM77,61h1v1h-1ZM56,82h1v1h-1ZM114,117h1v1h-1Z"/><path fill="rgba(70,66,66,198)" d="M95,58h1v1h-1ZM116,115h1v1h-1ZM36,118h1v1h-1ZM35,129h1v1h-1ZM25,140h1v1h-1Z"/><path fill="rgba(70,66,66,246)" d="M97,58h1v1h-1ZM91,66h1v1h-1ZM86,77h1v1h-1ZM108,116h1v1h-1ZM25,159h1v1h-1Z"/><path fill="rgba(60,60,60,249)" d="M104,58h1v1h-1ZM115,81h1v1h-1ZM145,82h1v1h-1ZM130,112h1v1h-1ZM163,119h1v1h-1ZM136,137h1v1h-1ZM144,140h1v1h-1ZM138,142h1v1h-1Z"/><path fill="rgba(60,60,60,18)" d="M134,58h1v1h-1ZM118,90h1v1h-1ZM120,94h1v1h-1Z"/><path fill="rgba(70,66,66,169)" d="M65,59h1v1h-1ZM52,111h1v1h-1ZM128,122h1v1h-1Z"/><path fill="rgba(70,66,66,68)" d="M76,59h1v1h-1ZM64,60h1v1h-1ZM102,85h1v1h-1ZM138,165h1v1h-1ZM34,169h1v1h-1Z"/><path fill="rgba(70,66,66,138)" d="M98,59h1v1h-1ZM70,60h1v1h-1ZM50,108h1v1h-1ZM35,140h1v1h-1ZM170,174h1v1h-1Z"/><path fill="rgba(60,60,60,158)" d="M104,59h1v1h-1ZM145,81h1v1h-1ZM81,96h1v1h-1ZM105,133h1v1h-1ZM50,174h1v1h-1Z"/><path fill="rgba(60,60,60,123)" d="M134,59h1v1h-1Z"/><path fill="rgba(70,66,66,174)" d="M77,60h1v1h-1ZM58,72h1v1h-1Z"/><path fill="rgba(70,66,66,232)" d="M87,60h1v1h-1ZM93,62h1v1h-1ZM54,83h1v1h-1ZM29,167h1v1h-1Z"/><path fill="rgba(70,66,66,18)" d="M88,60h1v1h-1ZM60,67h1v1h-1ZM64,86h1v1h-1ZM61,89h1v1h-1ZM65,95h1v1h-1ZM33,135h1v1h-1ZM26,136h1v1h-1ZM35,139h1v1h-1Z"/><path fill="rgba(70,66,66,7)" d="M93,60h1v1h-1ZM78,73h1v1h-1ZM89,85h1v1h-1ZM46,103h1v1h-1ZM46,110h1v1h-1ZM117,112h1v1h-1ZM35,131h1v1h-1ZM28,132h1v1h-1ZM47,143h1v1h-1ZM78,157h1v1h-1Z"/><path fill="rgba(70,66,66,244)" d="M98,60h1v1h-1ZM60,69h1v1h-1ZM114,94h1v1h-1ZM123,113h1v1h-1ZM57,118h1v1h-1ZM149,161h1v1h-1Z"/><path fill="rgba(60,60,60,234)" d="M105,60h1v1h-1ZM84,89h1v1h-1ZM78,138h1v1h-1Z"/><path fill="rgba(60,60,60,220)" d="M134,60h1v1h-1Z"/><path fill="rgba(60,60,60,13)" d="M135,60h1v1h-1ZM88,119h1v1h-1ZM136,127h1v1h-1ZM173,135h1v1h-1ZM55,139h1v1h-1ZM52,145h1v1h-1ZM45,162h1v1h-1ZM42,168h1v1h-1Z"/><path fill="rgba(70,66,66,6)" d="M63,61h1v1h-1ZM108,83h1v1h-1ZM97,93h1v1h-1ZM43,105h1v1h-1ZM110,125h1v1h-1ZM150,157h1v1h-1ZM76,161h1v1h-1Z"/><path fill="rgba(70,66,66,203)" d="M64,61h1v1h-1ZM53,129h1v1h-1ZM111,166h1v1h-1Z"/><path fill="rgba(70,66,66,118)" d="M87,61h1v1h-1ZM40,109h1v1h-1Z"/><path fill="rgba(70,66,66,108)" d="M99,61h1v1h-1ZM49,138h1v1h-1Z"/><path fill="rgba(70,66,66,70)" d="M63,62h1v1h-1ZM77,72h1v1h-1ZM45,109h1v1h-1ZM51,110h1v1h-1ZM134,173h1v1h-1Z"/><path fill="rgba(70,66,66,167)" d="M71,62h1v1h-1ZM91,65h1v1h-1ZM52,86h1v1h-1ZM127,120h1v1h-1ZM71,172h1v1h-1Z"/><path fill="rgba(70,66,66,155)" d="M78,62h1v1h-1ZM110,85h1v1h-1ZM103,92h1v1h-1ZM45,99h1v1h-1ZM117,99h1v1h-1ZM126,118h1v1h-1ZM57,119h1v1h-1Z"/><path fill="rgba(70,66,66,217)" d="M99,62h1v1h-1ZM127,127h1v1h-1Z"/><path fill="rgba(60,60,60,61)" d="M105,62h1v1h-1ZM81,148h1v1h-1Z"/><path fill="rgba(60,60,60,251)" d="M106,62h1v1h-1ZM129,110h1v1h-1ZM62,129h2v1h-2ZM135,135h1v1h-1ZM57,138h1v1h-1ZM86,140h1v1h-1Z"/><path fill="rgba(60,60,60,8)" d="M136,62h1v1h-1ZM107,67h1v1h-1ZM119,92h1v1h-1ZM81,134h1v1h-1ZM111,149h1v1h-1Z"/><path fill="rgba(70,66,66,204)" d="M63,63h1v1h-1ZM73,66h1v1h-1ZM101,66h1v1h-1ZM62,92h1v1h-1ZM64,95h1v1h-1ZM98,100h1v1h-1ZM41,153h1v1h-1Z"/><path fill="rgba(70,66,66,249)" d="M71,63h1v1h-1ZM76,79h1v1h-1ZM105,90h1v1h-1ZM65,97h1v1h-1ZM99,99h1v1h-1ZM103,110h1v1h-1ZM47,114h1v1h-1ZM106,115h1v1h-1ZM37,117h1v1h-1ZM113,162h1v1h-1ZM36,163h1v1h-1ZM28,165h1v1h-1Z"/><path fill="rgba(70,66,66,48)" d="M72,63h1v1h-1ZM103,69h1v1h-1ZM130,125h1v1h-1ZM71,171h1v1h-1Z"/><path fill="rgba(70,66,66,43)" d="M78,63h1v1h-1ZM122,109h1v1h-1Z"/><path fill="rgba(70,66,66,95)" d="M86,63h1v1h-1ZM61,81h1v1h-1ZM101,108h1v1h-1ZM38,113h1v1h-1ZM178,158h1v1h-1Z"/><path fill="rgba(70,66,66,130)" d="M92,63h1v1h-1ZM102,165h1v1h-1Z"/><path fill="rgba(70,66,66,114)" d="M100,63h1v1h-1ZM175,164h1v1h-1Z"/><path fill="rgba(60,60,60,170)" d="M106,63h1v1h-1ZM59,133h1v1h-1ZM86,139h1v1h-1ZM81,149h1v1h-1Z"/><path fill="rgba(60,60,60,109)" d="M136,63h1v1h-1ZM87,94h1v1h-1ZM88,103h1v1h-1ZM68,157h1v1h-1Z"/><path fill="rgba(70,66,66,91)" d="M62,64h1v1h-1ZM135,171h1v1h-1Z"/><path fill="rgba(70,66,66,193)" d="M72,64h1v1h-1ZM48,115h1v1h-1ZM38,135h1v1h-1ZM41,152h1v1h-1ZM80,157h1v1h-1ZM139,162h1v1h-1Z"/><path fill="rgba(70,66,66,136)" d="M79,64h1v1h-1ZM112,163h1v1h-1Z"/><path fill="rgba(70,66,66,3)" d="M86,64h1v1h-1ZM102,66h1v1h-1ZM106,75h1v1h-1ZM48,106h1v1h-1ZM52,133h1v1h-1ZM51,135h1v1h-1ZM41,143h1v1h-1ZM110,166h1v1h-1Z"/><path fill="rgba(70,66,66,59)" d="M91,64h1v1h-1ZM98,91h1v1h-1ZM102,110h1v1h-1Z"/><path fill="rgba(70,66,66,207)" d="M100,64h1v1h-1ZM70,92h1v1h-1ZM66,102h1v1h-1Z"/><path fill="rgba(60,60,60,71)" d="M106,64h1v1h-1ZM83,122h1v1h-1ZM85,140h1v1h-1ZM116,151h1v1h-1Z"/><path fill="rgba(70,66,66,87)" d="M73,65h1v1h-1ZM88,70h1v1h-1ZM104,90h1v1h-1ZM144,169h1v1h-1Z"/><path fill="rgba(70,66,66,243)" d="M80,65h1v1h-1ZM111,88h1v1h-1ZM100,105h1v1h-1ZM127,121h1v1h-1ZM34,123h1v1h-1ZM172,169h1v1h-1Z"/><path fill="rgba(70,66,66,67)" d="M85,65h1v1h-1ZM73,87h1v1h-1ZM96,94h1v1h-1Z"/><path fill="rgba(70,66,66,90)" d="M101,65h1v1h-1ZM43,146h1v1h-1Z"/><path fill="rgba(70,66,66,131)" d="M80,66h1v1h-1ZM148,162h1v1h-1ZM174,166h1v1h-1ZM31,172h1v1h-1Z"/><path fill="rgba(70,66,66,162)" d="M84,66h1v1h-1ZM47,113h1v1h-1ZM110,114h1v1h-1Z"/><path fill="rgba(70,66,66,64)" d="M90,66h1v1h-1ZM49,107h1v1h-1ZM121,108h1v1h-1Z"/><path fill="rgba(60,60,60,75)" d="M107,66h1v1h-1ZM94,103h1v1h-1ZM105,134h1v1h-1ZM114,151h1v1h-1Z"/><path fill="rgba(60,60,60,222)" d="M137,66h1v1h-1Z"/><path fill="rgba(60,60,60,24)" d="M138,66h1v1h-1ZM85,89h1v1h-1ZM167,125h1v1h-1Z"/><path fill="rgba(70,66,66,227)" d="M61,67h1v1h-1ZM74,68h1v1h-1ZM88,71h1v1h-1ZM38,159h1v1h-1Z"/><path fill="rgba(70,66,66,121)" d="M74,67h1v1h-1ZM48,105h1v1h-1ZM55,116h1v1h-1ZM173,168h1v1h-1Z"/><path fill="rgba(70,66,66,237)" d="M83,67h1v1h-1ZM109,84h1v1h-1ZM116,98h1v1h-1ZM113,127h13v1h-13ZM112,164h1v1h-1Z"/><path fill="rgba(70,66,66,192)" d="M90,67h1v1h-1ZM58,119h1v1h-1ZM41,141h1v1h-1ZM23,144h1v1h-1ZM81,157h24v1h-24Z"/><path fill="rgba(70,66,66,54)" d="M102,67h1v1h-1ZM126,117h1v1h-1ZM35,119h1v1h-1ZM58,120h1v1h-1ZM39,147h1v1h-1Z"/><path fill="rgba(60,60,60,215)" d="M108,67h1v1h-1ZM93,105h1v1h-1ZM140,146h1v1h-1Z"/><path fill="rgba(60,60,60,138)" d="M138,67h1v1h-1ZM132,98h1v1h-1ZM157,106h1v1h-1ZM138,127h1v1h-1Z"/><path fill="rgba(70,66,66,145)" d="M60,68h1v1h-1ZM53,84h1v1h-1ZM99,98h1v1h-1ZM62,111h1v1h-1ZM38,160h1v1h-1ZM27,164h1v1h-1Z"/><path fill="rgba(70,66,66,88)" d="M89,68h1v1h-1ZM119,110h1v1h-1ZM52,121h1v1h-1Z"/><path fill="rgba(70,66,66,252)" d="M90,68h1v1h-1ZM71,89h1v1h-1ZM60,114h1v1h-1ZM125,117h1v1h-1ZM21,151h1v1h-1ZM33,169h1v1h-1Z"/><path fill="rgba(70,66,66,178)" d="M102,68h1v1h-1ZM64,85h1v1h-1ZM112,111h1v1h-1ZM22,146h1v1h-1Z"/><path fill="rgba(60,60,60,93)" d="M108,68h1v1h-1ZM126,151h1v1h-1ZM142,151h1v1h-1ZM65,166h1v1h-1Z"/><path fill="rgba(60,60,60,229)" d="M138,68h1v1h-1ZM157,107h1v1h-1ZM76,142h1v1h-1ZM105,147h1v1h-1ZM48,158h1v1h-1ZM63,169h1v1h-1Z"/><path fill="rgba(60,60,60,21)" d="M139,68h1v1h-1ZM80,86h1v1h-1ZM157,105h1v1h-1ZM106,147h1v1h-1ZM112,151h1v1h-1Z"/><path fill="rgba(70,66,66,34)" d="M59,69h1v1h-1ZM53,83h1v1h-1ZM99,105h1v1h-1ZM118,111h1v1h-1ZM29,169h1v1h-1Z"/><path fill="rgba(70,66,66,144)" d="M75,69h1v1h-1ZM103,111h1v1h-1Z"/><path fill="rgba(70,66,66,156)" d="M82,69h1v1h-1ZM44,108h1v1h-1ZM26,162h1v1h-1Z"/><path fill="rgba(70,66,66,216)" d="M89,69h1v1h-1ZM111,125h1v1h-1ZM128,127h1v1h-1ZM31,133h1v1h-1ZM176,161h1v1h-1Z"/><path fill="rgba(60,60,60,140)" d="M139,69h1v1h-1ZM114,80h1v1h-1ZM130,98h1v1h-1ZM147,127h1v1h-1ZM150,127h1v1h-1ZM167,127h1v1h-1ZM74,147h1v1h-1Z"/><path fill="rgba(70,66,66,141)" d="M103,70h1v1h-1ZM115,95h1v1h-1ZM67,99h1v1h-1ZM37,162h1v1h-1ZM29,168h1v1h-1Z"/><path fill="rgba(70,66,66,60)" d="M58,71h1v1h-1ZM114,109h1v1h-1Z"/><path fill="rgba(70,66,66,172)" d="M76,71h1v1h-1ZM60,79h1v1h-1ZM54,114h1v1h-1Z"/><path fill="rgba(70,66,66,36)" d="M104,71h1v1h-1ZM75,83h1v1h-1Z"/><path fill="rgba(60,60,60,16)" d="M109,71h1v1h-1ZM81,84h1v1h-1ZM158,107h1v1h-1ZM140,144h1v1h-1ZM146,147h1v1h-1Z"/><path fill="rgba(60,60,60,133)" d="M140,71h1v1h-1ZM86,92h1v1h-1ZM137,98h1v1h-1ZM105,146h1v1h-1Z"/><path fill="rgba(70,66,66,120)" d="M87,72h1v1h-1ZM88,82h1v1h-1ZM118,103h1v1h-1ZM46,144h1v1h-1Z"/><path fill="rgba(70,66,66,129)" d="M104,72h1v1h-1ZM65,96h1v1h-1Z"/><path fill="rgba(60,60,60,238)" d="M140,72h1v1h-1ZM79,104h1v1h-1ZM148,149h1v1h-1ZM68,158h1v1h-1Z"/><path fill="rgba(70,66,66,236)" d="M87,73h1v1h-1ZM88,81h1v1h-1ZM89,83h1v1h-1ZM46,98h1v1h-1ZM118,102h1v1h-1ZM43,107h1v1h-1ZM119,111h1v1h-1ZM35,141h1v1h-1ZM37,161h1v1h-1Z"/><path fill="rgba(70,66,66,11)" d="M105,73h1v1h-1ZM101,87h1v1h-1ZM40,157h1v1h-1ZM177,161h1v1h-1ZM33,172h1v1h-1ZM134,174h1v1h-1Z"/><path fill="rgba(70,66,66,103)" d="M78,74h1v1h-1ZM90,86h1v1h-1ZM54,128h1v1h-1Z"/><path fill="rgba(70,66,66,143)" d="M86,74h1v1h-1ZM36,142h1v1h-1ZM97,174h1v1h-1Z"/><path fill="rgba(70,66,66,115)" d="M105,74h1v1h-1ZM50,136h1v1h-1ZM116,157h25v1h-25Z"/><path fill="rgba(70,66,66,94)" d="M57,75h1v1h-1ZM48,93h1v1h-1ZM97,101h1v1h-1ZM53,130h1v1h-1Z"/><path fill="rgba(70,66,66,194)" d="M78,75h1v1h-1ZM49,92h1v1h-1ZM38,114h1v1h-1ZM42,143h1v1h-1ZM144,170h1v1h-1ZM134,172h1v1h-1Z"/><path fill="rgba(70,66,66,52)" d="M85,75h1v1h-1ZM51,119h1v1h-1ZM25,161h1v1h-1ZM32,173h1v1h-1Z"/><path fill="rgba(70,66,66,239)" d="M86,75h1v1h-1ZM112,90h1v1h-1ZM111,112h1v1h-1ZM117,114h1v1h-1ZM173,167h1v1h-1ZM99,170h1v1h-1Z"/><path fill="rgba(70,66,66,158)" d="M58,76h1v1h-1ZM94,93h1v1h-1ZM79,157h1v1h-1ZM98,173h1v1h-1Z"/><path fill="rgba(70,66,66,133)" d="M78,76h1v1h-1ZM39,158h1v1h-1ZM100,169h1v1h-1Z"/><path fill="rgba(70,66,66,226)" d="M59,77h1v1h-1ZM77,77h1v1h-1ZM106,78h1v1h-1ZM126,127h1v1h-1ZM39,157h1v1h-1ZM108,173h1v1h-1Z"/><path fill="rgba(70,66,66,26)" d="M78,77h1v1h-1ZM54,81h1v1h-1ZM52,85h1v1h-1ZM107,85h1v1h-1ZM111,127h1v1h-1ZM173,169h1v1h-1ZM172,171h1v1h-1Z"/><path fill="rgba(70,66,66,51)" d="M85,77h1v1h-1ZM51,87h1v1h-1ZM38,145h1v1h-1ZM23,157h1v1h-1Z"/><path fill="rgba(70,66,66,209)" d="M106,77h1v1h-1Z"/><path fill="rgba(60,60,60,143)" d="M113,78h1v1h-1ZM77,96h1v1h-1ZM79,96h1v1h-1ZM127,98h1v1h-1ZM127,107h1v1h-1ZM156,127h1v1h-1ZM100,135h1v1h-1ZM178,147h1v1h-1ZM112,150h1v1h-1ZM41,174h2v1h-2Z"/><path fill="rgba(60,60,60,254)" d="M131,78h9v1h-9ZM148,88h1v1h-1ZM60,132h1v1h-1ZM146,144h1v1h-1ZM112,148h1v1h-1Z"/><path fill="rgba(60,60,60,244)" d="M142,78h1v1h-1ZM122,96h1v1h-1Z"/><path fill="rgba(60,60,60,240)" d="M143,78h1v1h-1ZM114,79h1v1h-1Z"/><path fill="rgba(70,66,66,37)" d="M77,79h1v1h-1ZM47,104h1v1h-1ZM106,117h1v1h-1ZM38,161h1v1h-1ZM147,163h1v1h-1Z"/><path fill="rgba(70,66,66,45)" d="M86,79h1v1h-1ZM62,112h1v1h-1ZM37,143h1v1h-1ZM109,169h1v1h-1ZM98,174h1v1h-1Z"/><path fill="rgba(70,66,66,241)" d="M87,79h1v1h-1ZM75,81h1v1h-1ZM115,96h1v1h-1ZM50,119h1v1h-1ZM37,145h1v1h-1ZM147,165h1v1h-1ZM109,171h1v1h-1ZM98,172h1v1h-1Z"/><path fill="rgba(70,66,66,84)" d="M106,79h1v1h-1ZM33,126h1v1h-1ZM52,132h1v1h-1ZM37,134h1v1h-1ZM78,158h1v1h-1Z"/><path fill="rgba(60,60,60,34)" d="M113,79h1v1h-1ZM109,144h1v1h-1Z"/><path fill="rgba(70,66,66,139)" d="M76,80h1v1h-1ZM99,89h1v1h-1ZM112,89h1v1h-1ZM61,90h1v1h-1Z"/><path fill="rgba(70,66,66,132)" d="M87,80h1v1h-1ZM100,106h1v1h-1ZM115,116h1v1h-1Z"/><path fill="rgba(60,60,60,56)" d="M145,80h1v1h-1ZM146,82h1v1h-1ZM82,84h1v1h-1ZM84,142h1v1h-1Z"/><path fill="rgba(70,66,66,85)" d="M55,81h1v1h-1ZM65,87h1v1h-1ZM91,88h1v1h-1ZM143,171h1v1h-1Z"/><path fill="rgba(70,66,66,25)" d="M76,81h1v1h-1ZM46,96h1v1h-1ZM97,100h1v1h-1ZM44,107h1v1h-1ZM57,120h1v1h-1Z"/><path fill="rgba(70,66,66,29)" d="M87,81h1v1h-1ZM62,83h1v1h-1ZM29,130h1v1h-1ZM74,165h1v1h-1Z"/><path fill="rgba(70,66,66,214)" d="M104,81h1v1h-1ZM60,89h1v1h-1ZM95,94h1v1h-1ZM39,112h1v1h-1ZM112,127h1v1h-1ZM40,139h1v1h-1ZM105,158h1v1h-1ZM141,158h1v1h-1Z"/><path fill="rgba(60,60,60,47)" d="M114,81h1v1h-1ZM127,108h1v1h-1ZM59,132h1v1h-1ZM104,143h1v1h-1ZM105,145h1v1h-1Z"/><path fill="rgba(70,66,66,160)" d="M62,82h1v1h-1ZM75,82h1v1h-1ZM66,88h1v1h-1ZM151,157h1v1h-1ZM28,166h1v1h-1Z"/><path fill="rgba(70,66,66,89)" d="M104,82h1v1h-1ZM106,87h1v1h-1ZM111,113h1v1h-1ZM112,120h1v1h-1ZM139,163h1v1h-1Z"/><path fill="rgba(70,66,66,223)" d="M56,83h1v1h-1ZM102,84h1v1h-1ZM65,86h1v1h-1ZM51,109h1v1h-1ZM32,135h1v1h-1ZM27,136h1v1h-1ZM104,160h1v1h-1ZM102,164h1v1h-1Z"/><path fill="rgba(70,66,66,231)" d="M63,83h1v1h-1ZM69,92h1v1h-1ZM63,108h1v1h-1ZM175,163h1v1h-1Z"/><path fill="rgba(70,66,66,238)" d="M74,83h1v1h-1ZM122,111h1v1h-1ZM54,126h1v1h-1ZM31,171h1v1h-1Z"/><path fill="rgba(60,60,60,38)" d="M115,83h1v1h-1ZM101,136h1v1h-1Z"/><path fill="rgba(60,60,60,247)" d="M116,83h1v1h-1ZM126,104h1v1h-1ZM66,119h1v1h-1ZM134,120h1v1h-1ZM100,136h1v1h-1ZM104,145h1v1h-1Z"/><path fill="rgba(70,66,66,161)" d="M74,84h1v1h-1ZM120,109h1v1h-1ZM147,164h1v1h-1Z"/><path fill="rgba(70,66,66,123)" d="M108,84h1v1h-1ZM114,158h1v1h-1Z"/><path fill="rgba(60,60,60,188)" d="M116,84h1v1h-1ZM146,145h1v1h-1Z"/><path fill="rgba(60,60,60,243)" d="M146,84h1v1h-1ZM147,86h1v1h-1ZM150,92h1v1h-1ZM87,95h1v1h-1ZM67,117h1v1h-1ZM99,134h1v1h-1ZM74,146h1v1h-1Z"/><path fill="rgba(60,60,60,42)" d="M147,84h1v1h-1ZM151,92h1v1h-1ZM86,122h1v1h-1ZM144,142h1v1h-1Z"/><path fill="rgba(70,66,66,230)" d="M53,85h1v1h-1ZM48,94h1v1h-1ZM116,105h1v1h-1ZM104,112h1v1h-1ZM28,134h1v1h-1ZM101,166h1v1h-1ZM73,169h1v1h-1Z"/><path fill="rgba(70,66,66,72)" d="M58,85h1v1h-1ZM100,96h1v1h-1ZM35,130h1v1h-1ZM21,153h1v1h-1ZM137,167h1v1h-1Z"/><path fill="rgba(70,66,66,63)" d="M74,85h1v1h-1ZM66,97h1v1h-1Z"/><path fill="rgba(60,60,60,130)" d="M81,85h1v1h-1ZM140,98h1v1h-1ZM71,122h2v1h-2Z"/><path fill="rgba(60,60,60,22)" d="M83,85h1v1h-1ZM82,132h1v1h-1ZM68,160h1v1h-1Z"/><path fill="rgba(70,66,66,213)" d="M90,85h1v1h-1ZM102,94h1v1h-1ZM41,108h1v1h-1ZM49,137h1v1h-1ZM43,145h1v1h-1Z"/><path fill="rgba(60,60,60,66)" d="M116,85h1v1h-1Z"/><path fill="rgba(60,60,60,250)" d="M117,85h1v1h-1ZM131,114h1v1h-1ZM64,129h18v1h-18ZM106,133h2v1h-2ZM58,136h1v1h-1ZM85,142h1v1h-1Z"/><path fill="rgba(60,60,60,137)" d="M83,86h1v1h-1ZM133,98h1v1h-1ZM139,127h3v1h-3Z"/><path fill="rgba(70,66,66,159)" d="M101,86h1v1h-1ZM45,100h1v1h-1ZM99,104h1v1h-1ZM124,114h1v1h-1ZM171,172h1v1h-1Z"/><path fill="rgba(70,66,66,176)" d="M107,86h1v1h-1Z"/><path fill="rgba(70,66,66,27)" d="M111,86h1v1h-1ZM65,106h1v1h-1ZM50,117h1v1h-1ZM111,164h1v1h-1ZM30,171h1v1h-1ZM31,173h1v1h-1Z"/><path fill="rgba(60,60,60,182)" d="M117,86h1v1h-1ZM58,174h1v1h-1Z"/><path fill="rgba(60,60,60,35)" d="M148,86h1v1h-1ZM74,103h3v1h-3ZM161,113h1v1h-1ZM105,132h1v1h-1Z"/><path fill="rgba(60,60,60,97)" d="M80,87h1v1h-1ZM153,98h1v1h-1ZM140,145h1v1h-1Z"/><path fill="rgba(70,66,66,190)" d="M91,87h1v1h-1ZM113,161h1v1h-1Z"/><path fill="rgba(60,60,60,86)" d="M117,87h1v1h-1ZM171,132h1v1h-1ZM55,140h1v1h-1Z"/><path fill="rgba(70,66,66,55)" d="M60,88h1v1h-1ZM72,89h1v1h-1ZM54,124h1v1h-1Z"/><path fill="rgba(70,66,66,187)" d="M72,88h1v1h-1Z"/><path fill="rgba(60,60,60,216)" d="M80,88h1v1h-1ZM171,133h1v1h-1Z"/><path fill="rgba(70,66,66,35)" d="M105,88h1v1h-1ZM148,161h1v1h-1ZM99,172h1v1h-1Z"/><path fill="rgba(70,66,66,224)" d="M106,88h1v1h-1ZM104,91h1v1h-1ZM34,139h1v1h-1Z"/><path fill="rgba(60,60,60,3)" d="M117,88h1v1h-1ZM89,117h1v1h-1ZM131,117h1v1h-1ZM174,137h1v1h-1ZM44,164h1v1h-1Z"/><path fill="rgba(70,66,66,71)" d="M50,89h1v1h-1ZM113,160h1v1h-1ZM140,161h1v1h-1Z"/><path fill="rgba(70,66,66,165)" d="M105,89h1v1h-1ZM118,112h1v1h-1ZM129,124h1v1h-1Z"/><path fill="rgba(70,66,66,199)" d="M71,90h1v1h-1ZM45,110h1v1h-1ZM54,127h1v1h-1ZM78,159h1v1h-1ZM137,166h1v1h-1Z"/><path fill="rgba(60,60,60,113)" d="M85,90h1v1h-1ZM149,98h1v1h-1ZM90,103h1v1h-1ZM83,151h1v1h-1ZM85,151h5v1h-5ZM49,157h1v1h-1ZM57,157h7v1h-7Z"/><path fill="rgba(70,66,66,44)" d="M113,90h1v1h-1ZM112,112h1v1h-1Z"/><path fill="rgba(60,60,60,246)" d="M149,90h1v1h-1ZM162,117h1v1h-1ZM175,142h1v1h-1ZM103,143h1v1h-1ZM82,148h1v1h-1ZM51,149h1v1h-1ZM141,149h1v1h-1Z"/><path fill="rgba(70,66,66,82)" d="M49,91h1v1h-1ZM136,169h1v1h-1Z"/><path fill="rgba(70,66,66,164)" d="M68,91h1v1h-1ZM106,116h1v1h-1ZM130,126h1v1h-1Z"/><path fill="rgba(60,60,60,227)" d="M85,91h1v1h-1ZM127,132h2v1h-2ZM80,134h1v1h-1ZM53,145h1v1h-1Z"/><path fill="rgba(60,60,60,14)" d="M86,91h1v1h-1ZM68,112h1v1h-1Z"/><path fill="rgba(70,66,66,175)" d="M93,91h1v1h-1ZM111,122h1v1h-1ZM21,148h1v1h-1Z"/><path fill="rgba(70,66,66,146)" d="M113,91h1v1h-1ZM97,92h1v1h-1ZM125,116h1v1h-1ZM37,144h1v1h-1ZM109,170h1v1h-1ZM108,174h1v1h-1Z"/><path fill="rgba(60,60,60,103)" d="M119,91h1v1h-1ZM85,103h1v1h-1ZM109,132h1v1h-1ZM106,136h1v1h-1Z"/><path fill="rgba(60,60,60,202)" d="M78,92h1v1h-1Z"/><path fill="rgba(70,66,66,137)" d="M63,93h1v1h-1ZM63,109h1v1h-1ZM53,123h1v1h-1Z"/><path fill="rgba(70,66,66,102)" d="M70,93h1v1h-1ZM110,124h1v1h-1ZM177,160h1v1h-1ZM142,173h1v1h-1Z"/><path fill="rgba(60,60,60,74)" d="M77,93h1v1h-1ZM145,144h1v1h-1Z"/><path fill="rgba(60,60,60,239)" d="M86,93h1v1h-1ZM158,109h1v1h-1ZM164,121h1v1h-1ZM166,125h1v1h-1Z"/><path fill="rgba(70,66,66,157)" d="M114,93h1v1h-1ZM122,110h1v1h-1Z"/><path fill="rgba(70,66,66,39)" d="M94,94h1v1h-1ZM117,98h1v1h-1ZM42,105h1v1h-1ZM125,115h1v1h-1Z"/><path fill="rgba(70,66,66,19)" d="M101,94h1v1h-1ZM99,97h1v1h-1ZM46,145h1v1h-1ZM105,160h1v1h-1ZM75,163h1v1h-1ZM100,170h1v1h-1Z"/><path fill="rgba(60,60,60,241)" d="M151,94h1v1h-1ZM81,104h1v1h-1ZM145,142h1v1h-1ZM177,146h1v1h-1Z"/><path fill="rgba(60,60,60,73)" d="M76,95h1v1h-1ZM140,133h1v1h-1ZM115,151h1v1h-1Z"/><path fill="rgba(70,66,66,28)" d="M95,95h1v1h-1ZM45,101h1v1h-1ZM41,106h1v1h-1ZM45,147h1v1h-1ZM174,167h1v1h-1ZM72,169h1v1h-1Z"/><path fill="rgba(60,60,60,145)" d="M121,95h1v1h-1ZM122,97h1v1h-1ZM125,98h1v1h-1ZM161,127h4v1h-4ZM43,174h1v1h-1Z"/><path fill="rgba(60,60,60,87)" d="M76,96h1v1h-1ZM79,122h2v1h-2ZM117,151h1v1h-1Z"/><path fill="rgba(60,60,60,142)" d="M78,96h1v1h-1ZM128,98h1v1h-1ZM152,127h4v1h-4ZM177,145h1v1h-1Z"/><path fill="rgba(60,60,60,168)" d="M86,96h1v1h-1ZM153,97h1v1h-1ZM176,143h1v1h-1Z"/><path fill="rgba(60,60,60,176)" d="M87,96h1v1h-1ZM135,123h1v1h-1ZM55,174h1v1h-1Z"/><path fill="rgba(60,60,60,40)" d="M121,96h1v1h-1ZM164,119h1v1h-1ZM165,121h1v1h-1ZM99,132h1v1h-1ZM142,149h1v1h-1ZM50,150h1v1h-1ZM67,162h1v1h-1Z"/><path fill="rgba(60,60,60,253)" d="M152,96h1v1h-1ZM92,107h1v1h-1ZM91,109h1v1h-1ZM89,114h1v1h-1ZM88,116h1v1h-1ZM135,122h1v1h-1ZM136,124h1v1h-1ZM174,140h1v1h-1ZM83,146h1v1h-1Z"/><path fill="rgba(60,60,60,52)" d="M153,96h1v1h-1ZM89,116h1v1h-1ZM133,120h1v1h-1Z"/><path fill="rgba(60,60,60,41)" d="M122,98h1v1h-1ZM125,104h1v1h-1ZM93,107h1v1h-1ZM176,142h1v1h-1ZM178,146h1v1h-1Z"/><path fill="rgba(60,60,60,147)" d="M123,98h1v1h-1ZM69,122h1v1h-1ZM165,122h1v1h-1ZM166,127h1v1h-1ZM51,150h21v1h-21ZM44,174h1v1h-1Z"/><path fill="rgba(60,60,60,144)" d="M126,98h1v1h-1ZM157,127h4v1h-4Z"/><path fill="rgba(60,60,60,141)" d="M129,98h1v1h-1ZM163,118h1v1h-1ZM164,120h1v1h-1ZM148,127h2v1h-2ZM151,127h1v1h-1ZM61,129h1v1h-1Z"/><path fill="rgba(60,60,60,139)" d="M131,98h1v1h-1ZM70,122h1v1h-1ZM142,127h5v1h-5Z"/><path fill="rgba(60,60,60,135)" d="M135,98h1v1h-1ZM77,141h1v1h-1ZM63,170h1v1h-1ZM61,174h1v1h-1Z"/><path fill="rgba(60,60,60,134)" d="M136,98h1v1h-1ZM87,120h1v1h-1ZM51,148h1v1h-1Z"/><path fill="rgba(60,60,60,132)" d="M138,98h1v1h-1ZM115,132h1v1h-1ZM148,150h1v1h-1Z"/><path fill="rgba(60,60,60,131)" d="M139,98h1v1h-1ZM156,104h1v1h-1Z"/><path fill="rgba(60,60,60,129)" d="M141,98h1v1h-1ZM158,108h1v1h-1Z"/><path fill="rgba(60,60,60,115)" d="M143,98h1v1h-1ZM147,98h1v1h-1ZM137,151h1v1h-1ZM67,157h1v1h-1Z"/><path fill="rgba(70,66,66,69)" d="M98,99h1v1h-1Z"/><path fill="rgba(70,66,66,100)" d="M67,101h1v1h-1ZM53,113h1v1h-1ZM77,160h1v1h-1Z"/><path fill="rgba(70,66,66,98)" d="M46,102h1v1h-1ZM39,111h1v1h-1ZM25,139h1v1h-1ZM48,140h1v1h-1Z"/><path fill="rgba(70,66,66,180)" d="M47,103h1v1h-1Z"/><path fill="rgba(70,66,66,109)" d="M66,103h1v1h-1ZM40,156h1v1h-1ZM76,162h1v1h-1Z"/><path fill="rgba(60,60,60,30)" d="M73,103h1v1h-1Z"/><path fill="rgba(60,60,60,36)" d="M77,103h2v1h-2ZM80,103h1v1h-1ZM66,117h1v1h-1ZM166,123h1v1h-1ZM60,130h1v1h-1Z"/><path fill="rgba(60,60,60,37)" d="M79,103h1v1h-1Z"/><path fill="rgba(60,60,60,43)" d="M81,103h1v1h-1ZM106,132h1v1h-1ZM73,150h1v1h-1Z"/><path fill="rgba(60,60,60,83)" d="M82,103h1v1h-1ZM111,148h1v1h-1ZM43,167h1v1h-1Z"/><path fill="rgba(60,60,60,101)" d="M84,103h1v1h-1ZM52,146h1v1h-1ZM131,151h1v1h-1Z"/><path fill="rgba(60,60,60,107)" d="M87,103h1v1h-1ZM110,132h1v1h-1ZM94,151h1v1h-1Z"/><path fill="rgba(60,60,60,121)" d="M93,103h1v1h-1ZM75,122h1v1h-1ZM113,132h2v1h-2ZM75,145h1v1h-1Z"/><path fill="rgba(70,66,66,65)" d="M98,103h1v1h-1Z"/><path fill="rgba(60,60,60,186)" d="M128,103h1v1h-1ZM174,139h1v1h-1Z"/><path fill="rgba(60,60,60,190)" d="M131,103h1v1h-1ZM135,103h1v1h-1ZM68,114h1v1h-1ZM103,142h1v1h-1Z"/><path fill="rgba(60,60,60,209)" d="M137,103h4v1h-4ZM55,141h1v1h-1Z"/><path fill="rgba(60,60,60,211)" d="M145,103h5v1h-5ZM56,139h1v1h-1Z"/><path fill="rgba(60,60,60,214)" d="M154,103h1v1h-1Z"/><path fill="rgba(60,60,60,26)" d="M156,103h1v1h-1ZM162,115h1v1h-1ZM106,137h1v1h-1Z"/><path fill="rgba(60,60,60,49)" d="M72,104h1v1h-1ZM132,118h1v1h-1ZM137,137h1v1h-1ZM177,144h1v1h-1Z"/><path fill="rgba(60,60,60,230)" d="M73,104h1v1h-1ZM65,121h1v1h-1ZM129,132h1v1h-1Z"/><path fill="rgba(70,66,66,188)" d="M117,104h1v1h-1Z"/><path fill="rgba(60,60,60,12)" d="M94,105h1v1h-1ZM91,112h1v1h-1ZM138,139h1v1h-1ZM43,166h1v1h-1Z"/><path fill="rgba(70,66,66,196)" d="M49,106h1v1h-1ZM153,157h24v1h-24Z"/><path fill="rgba(60,60,60,63)" d="M71,106h1v1h-1ZM87,136h1v1h-1Z"/><path fill="rgba(70,66,66,86)" d="M116,106h1v1h-1ZM105,115h1v1h-1ZM42,144h1v1h-1Z"/><path fill="rgba(60,60,60,44)" d="M126,106h1v1h-1ZM65,119h1v1h-1ZM87,121h1v1h-1Z"/><path fill="rgba(70,66,66,125)" d="M41,107h1v1h-1ZM108,117h1v1h-1ZM74,166h1v1h-1Z"/><path fill="rgba(70,66,66,116)" d="M64,107h1v1h-1ZM141,157h1v1h-1Z"/><path fill="rgba(70,66,66,206)" d="M101,107h1v1h-1ZM50,135h1v1h-1Z"/><path fill="rgba(70,66,66,151)" d="M115,107h1v1h-1Z"/><path fill="rgba(60,60,60,248)" d="M128,108h1v1h-1ZM86,121h1v1h-1ZM73,148h1v1h-1Z"/><path fill="rgba(70,66,66,183)" d="M102,109h1v1h-1ZM59,117h1v1h-1ZM105,157h1v1h-1Z"/><path fill="rgba(60,60,60,39)" d="M128,110h1v1h-1Z"/><path fill="rgba(60,60,60,120)" d="M159,110h1v1h-1ZM80,135h1v1h-1ZM101,137h1v1h-1Z"/><path fill="rgba(60,60,60,104)" d="M69,111h1v1h-1ZM45,163h1v1h-1ZM44,165h1v1h-1Z"/><path fill="rgba(60,60,60,181)" d="M129,111h1v1h-1Z"/><path fill="rgba(60,60,60,28)" d="M160,111h1v1h-1ZM51,147h1v1h-1ZM63,171h1v1h-1Z"/><path fill="rgba(70,66,66,23)" d="M47,112h1v1h-1ZM52,112h1v1h-1ZM113,118h1v1h-1ZM41,155h1v1h-1ZM28,167h1v1h-1ZM141,174h1v1h-1Z"/><path fill="rgba(60,60,60,217)" d="M90,112h1v1h-1Z"/><path fill="rgba(70,66,66,163)" d="M123,112h1v1h-1ZM20,150h1v1h-1Z"/><path fill="rgba(60,60,60,94)" d="M68,113h1v1h-1ZM127,151h1v1h-1ZM129,151h1v1h-1Z"/><path fill="rgba(60,60,60,65)" d="M130,114h1v1h-1ZM84,122h1v1h-1ZM88,134h1v1h-1ZM80,150h1v1h-1Z"/><path fill="rgba(60,60,60,76)" d="M67,115h1v1h-1ZM82,122h1v1h-1ZM135,124h1v1h-1ZM113,151h1v1h-1ZM40,173h1v2h-1Z"/><path fill="rgba(70,66,66,179)" d="M37,116h1v1h-1ZM54,125h1v1h-1ZM33,170h1v1h-1Z"/><path fill="rgba(70,66,66,80)" d="M109,116h1v1h-1Z"/><path fill="rgba(70,66,66,56)" d="M59,118h1v1h-1ZM34,121h1v1h-1Z"/><path fill="rgba(70,66,66,195)" d="M51,120h1v1h-1ZM110,168h1v1h-1ZM142,174h1v1h-1Z"/><path fill="rgba(60,60,60,20)" d="M64,121h1v1h-1ZM147,149h1v1h-1ZM47,158h1v1h-1ZM46,160h1v1h-1Z"/><path fill="rgba(60,60,60,57)" d="M64,122h1v1h-1ZM48,157h1v1h-1Z"/><path fill="rgba(60,60,60,60)" d="M85,122h1v1h-1ZM82,146h1v1h-1Z"/><path fill="rgba(60,60,60,68)" d="M134,122h1v1h-1ZM110,146h1v1h-1Z"/><path fill="rgba(70,66,66,106)" d="M110,123h1v1h-1Z"/><path fill="rgba(70,66,66,148)" d="M33,124h1v1h-1ZM73,168h1v1h-1Z"/><path fill="rgba(70,66,66,135)" d="M111,126h1v1h-1Z"/><path fill="rgba(60,60,60,175)" d="M167,126h1v1h-1ZM60,131h1v1h-1ZM85,141h1v1h-1Z"/><path fill="rgba(70,66,66,186)" d="M34,127h1v1h-1ZM44,147h1v1h-1ZM39,148h1v1h-1Z"/><path fill="rgba(70,66,66,201)" d="M130,127h1v1h-1ZM39,137h1v1h-1ZM177,159h1v1h-1Z"/><path fill="rgba(70,66,66,66)" d="M30,130h1v1h-1Z"/><path fill="rgba(60,60,60,242)" d="M61,130h1v1h-1ZM133,132h1v1h-1ZM66,162h1v1h-1Z"/><path fill="rgba(60,60,60,226)" d="M81,132h1v1h-1ZM112,149h1v1h-1Z"/><path fill="rgba(60,60,60,174)" d="M90,132h1v1h-1ZM141,132h1v1h-1ZM99,133h1v1h-1ZM54,174h1v1h-1Z"/><path fill="rgba(60,60,60,79)" d="M108,132h1v1h-1ZM141,147h1v1h-1ZM66,164h1v1h-1Z"/><path fill="rgba(60,60,60,233)" d="M130,132h1v1h-1ZM107,137h1v1h-1ZM62,171h1v1h-1Z"/><path fill="rgba(60,60,60,172)" d="M170,132h1v1h-1ZM136,136h1v1h-1ZM53,174h1v1h-1Z"/><path fill="rgba(70,66,66,191)" d="M37,133h1v1h-1ZM40,150h1v1h-1Z"/><path fill="rgba(70,66,66,96)" d="M51,134h1v1h-1ZM27,135h1v1h-1ZM104,161h1v1h-1Z"/><path fill="rgba(60,60,60,70)" d="M58,134h1v1h-1Z"/><path fill="rgba(60,60,60,177)" d="M58,135h1v1h-1Z"/><path fill="rgba(60,60,60,53)" d="M136,135h1v1h-1ZM83,144h1v1h-1Z"/><path fill="rgba(60,60,60,92)" d="M141,135h1v1h-1ZM123,151h3v1h-3Z"/><path fill="rgba(60,60,60,218)" d="M172,135h1v1h-1ZM137,139h1v1h-1ZM54,143h1v1h-1Z"/><path fill="rgba(60,60,60,91)" d="M173,136h1v1h-1ZM118,151h1v1h-1ZM121,151h2v1h-2ZM130,151h1v1h-1Z"/><path fill="rgba(70,66,66,99)" d="M26,137h1v1h-1Z"/><path fill="rgba(70,66,66,197)" d="M26,138h1v1h-1ZM152,157h1v1h-1ZM177,157h1v1h-1Z"/><path fill="rgba(70,66,66,128)" d="M34,138h1v1h-1Z"/><path fill="rgba(60,60,60,125)" d="M137,138h1v1h-1ZM143,139h1v1h-1Z"/><path fill="rgba(60,60,60,25)" d="M142,138h1v1h-1Z"/><path fill="rgba(60,60,60,84)" d="M174,138h1v1h-1ZM42,169h1v1h-1Z"/><path fill="rgba(60,60,60,100)" d="M138,140h1v1h-1Z"/><path fill="rgba(60,60,60,59)" d="M175,140h1v1h-1ZM80,151h1v1h-1ZM62,173h1v1h-1Z"/><path fill="rgba(60,60,60,180)" d="M175,141h1v1h-1ZM57,174h1v1h-1Z"/><path fill="rgba(70,66,66,92)" d="M41,142h1v1h-1Z"/><path fill="rgba(60,60,60,51)" d="M139,142h1v1h-1Z"/><path fill="rgba(60,60,60,173)" d="M145,143h1v1h-1ZM83,145h1v1h-1Z"/><path fill="rgba(60,60,60,102)" d="M53,144h1v1h-1ZM46,161h1v1h-1Z"/><path fill="rgba(70,66,66,73)" d="M22,145h1v1h-1ZM70,173h1v1h-1Z"/><path fill="rgba(70,66,66,76)" d="M21,147h1v1h-1Z"/><path fill="rgba(60,60,60,90)" d="M119,151h2v1h-2ZM41,171h1v1h-1Z"/><path fill="rgba(60,60,60,95)" d="M128,151h1v1h-1Z"/><path fill="rgba(70,66,66,182)" d="M21,152h1v1h-1ZM138,164h1v1h-1Z"/><path fill="rgba(70,66,66,171)" d="M22,154h1v1h-1ZM34,168h1v1h-1Z"/><path fill="rgba(70,66,66,61)" d="M22,155h1v1h-1Z"/><path fill="rgba(70,66,66,113)" d="M115,157h1v1h-1ZM75,164h1v1h-1Z"/><path fill="rgba(70,66,66,184)" d="M24,158h1v1h-1ZM145,168h1v1h-1Z"/><path fill="rgba(70,66,66,119)" d="M150,158h1v1h-1Z"/><path fill="rgba(70,66,66,46)" d="M24,159h1v1h-1ZM26,163h1v1h-1ZM37,163h1v1h-1Z"/><path fill="rgba(70,66,66,33)" d="M73,167h1v1h-1ZM107,174h1v1h-1Z"/><path fill="rgba(70,66,66,53)" d="M171,173h1v1h-1Z"/></g></svg>